<svg width="23" height="27" viewBox="0 0 23 27" fill="none" xmlns="http://www.w3.org/2000/svg">
<path d="M18.3666 25.0287C16.9423 26.4094 15.3872 26.1914 13.8902 25.5373C12.306 24.8688 10.8526 24.8397 9.18118 25.5373C7.0883 26.4384 5.98372 26.1768 4.73381 25.0287C-2.35874 17.7181 -1.3123 6.58513 6.73949 6.17818C8.70157 6.27991 10.0678 7.25369 11.2159 7.34089C12.9309 6.99208 14.5733 5.98924 16.4045 6.12004C18.5992 6.29445 20.256 7.16648 21.3461 8.73614C16.8115 11.454 17.887 17.4274 22.0437 19.0988C21.2153 21.2789 20.1398 23.4445 18.3521 25.0432L18.3666 25.0287ZM11.0706 6.09097C10.8526 2.84991 13.4832 0.175673 16.5063 -0.0859375C16.9278 3.66381 13.1053 6.45432 11.0706 6.09097Z" fill="white"/>
</svg>
