<svg width="1021" height="1443" viewBox="0 0 1021 1443" fill="none" xmlns="http://www.w3.org/2000/svg">
<g opacity="0.1">
<path d="M-16 694.694C-16 648.615 6.66503 605.482 44.6177 579.336L859.195 18.1471C876.35 6.32855 896.692 0 917.526 0C950.271 0 981.306 15.9352 1000.67 42.3341C1013.77 60.1961 1021 81.9912 1021 104.141V1302.9C1021 1380.28 958.259 1443 880.865 1443H124.135C46.7406 1443 -16 1380.28 -16 1302.9V694.694Z" fill="white"/>
<path d="M376.378 854.592C376.378 797.852 422.388 751.854 479.144 751.854H619.279C676.035 751.854 722.045 797.852 722.045 854.592V1097.43C722.045 1154.17 676.035 1200.17 619.279 1200.17H479.144C422.388 1200.17 376.378 1154.17 376.378 1097.43V854.592Z" fill="#0576F7"/>
</g>
</svg>
