<svg width="175" height="160" viewBox="0 0 175 160" fill="none" xmlns="http://www.w3.org/2000/svg">
<path d="M174.6 6.3031L170.1 37.5031C160.9 36.7031 153.6 38.3031 148.2 42.3031C142.8 46.1031 139.1 51.6031 137.1 58.8031C135.3 65.8031 135 73.8031 136.2 82.8031H174.6V159.903H100.5V79.8031C100.5 53.6031 106.7 33.8031 119.1 20.4031C131.5 6.8031 150 2.1031 174.6 6.3031ZM74.1 6.3031L69.6 37.5031C60.4 36.7031 53.1 38.3031 47.7 42.3031C42.3 46.1031 38.6 51.6031 36.6 58.8031C34.8 65.8031 34.5 73.8031 35.7 82.8031H74.1V159.903H3.39746e-06V79.8031C3.39746e-06 53.6031 6.2 33.8031 18.6 20.4031C31 6.8031 49.5 2.1031 74.1 6.3031Z" fill="white"/>
</svg>
