<svg width="227" height="46" viewBox="0 0 227 46" fill="none" xmlns="http://www.w3.org/2000/svg">
<path d="M46.5485 21.8808C46.6822 21.8793 46.6822 21.8793 46.8187 21.8777C46.9143 21.8773 47.0099 21.8768 47.1085 21.8764C47.2079 21.8758 47.3073 21.8752 47.4097 21.8746C47.6201 21.8736 47.8305 21.8729 48.0409 21.8725C48.3605 21.8715 48.68 21.8682 48.9995 21.8649C49.2044 21.8642 49.4094 21.8637 49.6143 21.8633C49.7089 21.862 49.8035 21.8607 49.9009 21.8594C50.8732 21.8627 51.7138 22.1089 52.4363 22.787C53.2756 23.6779 53.2591 24.7068 53.2533 25.8756C53.2535 26.0269 53.2538 26.1782 53.2542 26.3295C53.2547 26.6452 53.254 26.9609 53.2525 27.2766C53.2507 27.6789 53.2518 28.0811 53.2536 28.4834C53.2548 28.7954 53.2544 29.1074 53.2536 29.4194C53.2534 29.5676 53.2536 29.7159 53.2544 29.8641C53.2588 30.9904 53.2101 31.9568 52.3899 32.7919C51.6437 33.4618 50.8536 33.5958 49.8809 33.5833C49.7661 33.5836 49.6514 33.5838 49.5331 33.5841C49.292 33.584 49.0508 33.5826 48.8097 33.58C48.4426 33.5764 48.0757 33.5778 47.7086 33.5798C47.4731 33.5791 47.2376 33.5781 47.0021 33.5768C46.8392 33.5775 46.8392 33.5775 46.673 33.5783C45.8137 33.5646 45.2116 33.3437 44.4967 32.8763C43.3386 31.6656 43.5622 29.9583 43.5676 28.4011C43.5679 28.2734 43.5679 28.2734 43.5682 28.1431C43.571 27.1145 43.5765 26.0858 43.6134 25.0578C43.6158 24.97 43.6181 24.8822 43.6205 24.7918C43.6574 23.9867 43.8795 23.2977 44.4309 22.6938C45.0248 22.1863 45.7697 21.8879 46.5485 21.8808Z" fill="#047BFE"/>
<path d="M220.615 13.356C221.887 14.0759 222.849 14.8374 223.412 16.2349C223.579 18.2888 222.751 19.6654 221.577 21.2371C221.426 21.4476 221.275 21.658 221.12 21.8748C220.676 22.4935 220.227 23.1071 219.776 23.7202C219.33 24.3362 218.888 24.9545 218.447 25.5735C218.181 25.9382 218.181 25.9382 217.909 26.3101C217.486 26.8517 217.486 26.8517 217.538 27.4628C218.045 27.9406 218.582 28.3684 219.122 28.8045C220.982 30.7216 222.134 33.2831 223.36 35.6499C223.524 35.9629 223.687 36.2759 223.856 36.5985C225.561 39.866 225.561 39.866 225.371 41.5697C224.578 42.9505 223.503 43.9569 222.014 44.4486C220.496 44.6564 219.396 44.7915 218.118 43.838C217.224 43.0422 216.71 42.1702 216.154 41.0929C216.06 40.913 215.966 40.7331 215.869 40.5478C215.571 39.9786 215.278 39.4069 214.985 38.8347C214.69 38.263 214.394 37.6919 214.096 37.1216C213.826 36.6046 213.56 36.0859 213.294 35.5672C212.255 33.721 212.255 33.721 210.544 32.645C210.147 32.5615 209.748 32.501 209.347 32.4573C207.225 32.2258 205.485 34.064 205.436 36.1982C205.426 36.6332 205.418 37.0683 205.412 37.5033C205.403 38.1309 205.388 38.7583 205.372 39.3857C205.365 39.7627 205.358 40.1396 205.35 40.5279C205.193 41.8802 204.822 42.8808 203.848 43.8189C202.27 44.7541 200.225 44.6655 198.478 44.3362C197.469 43.9855 196.983 43.4912 196.512 42.5519C195.931 41.2826 195.84 40.198 195.857 38.8105C195.856 38.5752 195.854 38.3399 195.853 38.0974C195.849 37.3265 195.854 36.5558 195.859 35.7848C195.859 35.245 195.858 34.7051 195.858 34.1653C195.857 33.0366 195.861 31.9081 195.867 30.7794C195.875 29.337 195.874 27.8948 195.871 26.4525C195.869 25.3385 195.871 24.2247 195.875 23.1107C195.876 22.5791 195.876 22.0474 195.875 21.5158C195.874 20.7711 195.879 20.0267 195.885 19.282C195.883 19.0651 195.882 18.8482 195.881 18.6247C195.903 16.9707 196.163 15.3233 197.233 14.028C198.231 13.1631 199.464 13.2734 200.701 13.248C200.994 13.2319 200.994 13.2319 201.294 13.2154C202.375 13.1967 203.07 13.2995 203.939 13.9925C205.171 15.3456 205.299 16.4402 205.284 18.2648C205.283 18.4545 205.282 18.6442 205.281 18.8396C205.278 19.4409 205.271 20.0421 205.264 20.6433C205.261 21.0529 205.259 21.4624 205.257 21.872C205.255 22.1324 205.253 22.3928 205.251 22.6532C205.241 23.8747 206.211 24.8718 207.433 24.8718C208.489 24.8718 209.486 24.3282 210.055 23.438C211.303 21.4859 212.571 19.5653 213.847 17.6789C214.029 17.4092 214.029 17.4092 214.215 17.134C214.441 16.7978 214.665 16.4604 214.887 16.1214C216.416 13.8557 217.922 12.6333 220.615 13.356Z" fill="#0576F7"/>
<path d="M168.409 13.2487C168.958 13.2364 168.958 13.2364 169.517 13.2239C170.694 13.3762 171.126 13.6391 171.941 14.5082C172.512 15.4461 172.569 16.1733 172.564 17.2705C172.564 17.5932 172.564 17.9159 172.564 18.2483C172.561 18.595 172.558 18.9417 172.555 19.299C172.554 19.6552 172.554 20.0114 172.553 20.3784C172.55 21.3231 172.545 22.2678 172.539 23.2125C172.533 24.1774 172.531 25.1423 172.528 26.1072C172.526 26.7531 172.523 27.3989 172.521 28.0447C172.515 29.3996 174.09 30.0043 174.879 28.9029C175.044 28.6752 175.163 28.4358 175.333 28.2012C175.505 27.9624 175.677 27.7235 175.854 27.4774C177.717 24.8962 179.612 22.3398 181.513 19.7882C181.959 19.1859 182.4 18.5803 182.838 17.9719C183.476 17.0885 184.136 16.2268 184.809 15.3719C184.971 15.1496 185.132 14.9273 185.299 14.6983C186.184 13.6709 186.946 13.3254 188.257 13.1767C188.71 13.1512 189.164 13.1334 189.617 13.1227C189.837 13.1157 190.057 13.1088 190.283 13.1016C191.174 13.1232 191.824 13.1458 192.538 13.7273C193.779 15.2058 193.805 16.5323 193.811 18.3923C193.812 18.6419 193.814 18.8915 193.816 19.1487C193.822 19.9755 193.825 20.8023 193.828 21.6291C193.829 21.9117 193.83 22.1942 193.831 22.4853C193.837 23.981 193.841 25.4766 193.844 26.9723C193.847 28.5158 193.856 30.0591 193.867 31.6025C193.875 32.7905 193.877 33.9785 193.878 35.1665C193.879 35.7353 193.883 36.3042 193.888 36.873C193.895 37.6703 193.894 38.4673 193.893 39.2646C193.896 39.4983 193.9 39.732 193.903 39.9728C193.889 41.5921 193.553 42.544 192.642 43.8735C191.278 44.6424 189.688 44.6122 188.166 44.4493C186.805 43.9655 186.283 43.4565 185.649 42.1461C185.537 41.361 185.537 41.361 185.528 40.5027C185.522 40.1801 185.517 39.8574 185.511 39.525C185.509 39.1797 185.507 38.8345 185.505 38.4788C185.5 38.123 185.495 37.7672 185.49 37.4006C185.478 36.4583 185.469 35.516 185.461 34.5737C185.453 33.6106 185.44 32.6476 185.427 31.6846C185.404 29.8632 183.078 29.105 181.993 30.5678C181.363 31.4164 180.644 32.3858 179.424 34.0311C179.235 34.2862 179.046 34.5412 178.852 34.804C177.847 36.161 176.848 37.5217 175.858 38.8893C175.092 39.9408 174.32 40.986 173.532 42.0202C173.36 42.2462 173.188 42.4722 173.011 42.705C172.022 43.8536 171.172 44.4002 169.663 44.5179C166.55 44.5827 166.55 44.5827 165.577 43.9635C164.269 42.5804 164.305 41.1431 164.307 39.3173C164.305 39.0643 164.303 38.8114 164.301 38.5507C164.296 37.7163 164.295 36.8819 164.294 36.0475C164.292 35.4663 164.29 34.8851 164.288 34.3039C164.285 33.0864 164.284 31.8689 164.284 30.6513C164.284 29.0924 164.277 27.5336 164.267 25.9746C164.261 24.7745 164.26 23.5745 164.26 22.3744C164.26 21.7997 164.257 21.225 164.253 20.6503C164.247 19.8461 164.249 19.0422 164.252 18.238C164.249 18.0015 164.246 17.765 164.243 17.5213C164.259 16.0025 164.525 15.1344 165.507 13.9324C166.554 13.2141 167.16 13.2613 168.409 13.2487Z" fill="#0576F7"/>
<path d="M12.1849 0.0391168C12.5201 0.0380154 12.8553 0.0369141 13.2007 0.0357793C14.1276 0.0333276 15.0544 0.0334465 15.9813 0.0346797C16.9822 0.035391 17.9831 0.0327938 18.9841 0.0306384C20.9435 0.0269709 22.9028 0.0264519 24.8622 0.0271262C26.4546 0.0276397 28.047 0.0271354 29.6395 0.02591C29.8662 0.0257386 30.0929 0.0255673 30.3265 0.0253907C30.7872 0.0250419 31.2478 0.0246923 31.7084 0.0243421C36.0262 0.0212121 40.3439 0.0218333 44.6617 0.0235892C48.6122 0.0250781 52.5626 0.0218349 56.513 0.0163636C60.57 0.0107877 64.6271 0.00840718 68.6841 0.00948958C70.9616 0.0100404 73.239 0.00932028 75.5165 0.00525334C77.4547 0.00182706 79.393 0.0014149 81.3312 0.00490503C82.3201 0.00660274 83.3089 0.00691041 84.2978 0.00346487C85.3696 -0.000226357 86.4414 0.00276986 87.5132 0.00643339C87.8259 0.00431037 88.1386 0.00218735 88.4608 0C90.2366 0.0128087 91.5684 0.131126 92.9521 1.39958C93.9636 2.71213 94.2059 3.58689 94.2041 5.23033C94.2047 5.6433 94.2047 5.6433 94.2053 6.06461C94.2043 6.36467 94.2033 6.66473 94.2022 6.97388C94.2023 7.29136 94.2023 7.60883 94.2024 7.93592C94.2022 8.98584 94.2 10.0357 94.1978 11.0857C94.1973 11.8134 94.1969 12.5411 94.1966 13.2689C94.1956 14.9889 94.1934 16.7089 94.1906 18.429C94.1875 20.3875 94.186 22.346 94.1846 24.3045C94.182 27.818 94.1779 31.3316 94.1728 34.8451C94.1715 35.6973 94.8621 36.3889 95.7143 36.3889C95.8026 36.3889 95.891 36.3889 95.9795 36.3889C96.8867 36.3889 97.5342 35.5099 97.2651 34.6436C95.9078 30.0581 96.0057 25.1592 97.982 20.7526C100.029 16.9019 103.057 14.5801 107.088 13.2786C111.788 12.0342 117.066 12.4955 121.346 14.8575C123.127 16.0063 124.401 17.3469 125.465 18.935C125.955 19.6664 127.248 19.3657 127.262 18.4855C127.323 16.7701 127.583 15.3477 128.579 13.9331C129.608 13.2267 130.411 13.2516 131.604 13.2494C131.799 13.2423 131.995 13.2353 132.196 13.228C132.389 13.2269 132.582 13.2258 132.78 13.2246C132.954 13.2223 133.127 13.2199 133.306 13.2175C134.58 13.5205 135.41 14.2915 136.191 15.3367C136.38 15.6547 136.569 15.9727 136.765 16.3004C136.87 16.4756 136.975 16.6507 137.084 16.8312C137.424 17.3981 137.757 17.9683 138.09 18.5394C138.202 18.7302 138.314 18.921 138.43 19.1175C139.241 20.4969 140.039 21.8834 140.835 23.2717C141.07 23.6802 141.305 24.0886 141.54 24.497C141.971 25.2449 142.401 25.9929 142.83 26.7416C142.973 26.9898 142.973 26.9898 143.118 27.2431C143.319 27.5992 143.515 27.958 143.708 28.3187C144.215 29.3642 144.215 29.3642 145.084 30.0552C145.156 29.8543 145.228 29.6534 145.302 29.4464C145.679 28.5287 146.131 27.7009 146.62 26.8412C146.716 26.6725 146.811 26.5039 146.91 26.3301C147.221 25.7838 147.533 25.2384 147.846 24.6932C147.952 24.5075 148.059 24.3217 148.168 24.1303C149.517 21.7759 150.872 19.4244 152.269 17.1C152.397 16.8837 152.524 16.6675 152.656 16.4448C153.444 15.1527 154.176 14.1878 155.434 13.3573C156.255 13.2215 156.878 13.1665 157.689 13.1954C157.884 13.1922 158.078 13.1891 158.278 13.1858C159.22 13.1996 159.868 13.3336 160.696 13.7993C162.076 15.3976 162.273 17.2354 162.256 19.2834C162.258 19.5187 162.259 19.754 162.261 19.9964C162.265 20.7674 162.262 21.5381 162.259 22.3091C162.26 22.8489 162.261 23.3887 162.262 23.9286C162.263 25.0572 162.261 26.1858 162.257 27.3145C162.253 28.7568 162.255 30.1991 162.26 31.6414C162.263 32.7553 162.262 33.8692 162.26 34.9831C162.26 35.5148 162.26 36.0464 162.262 36.5781C162.264 37.3228 162.261 38.0672 162.256 38.8119C162.258 39.0288 162.26 39.2457 162.262 39.4692C162.244 41.0119 161.941 42.1812 161.309 43.5863C160.176 44.3633 159.299 44.2783 157.969 44.288C157.742 44.2975 157.515 44.307 157.281 44.3167C155.606 44.3323 155.606 44.3323 154.734 43.4705C154.166 42.4568 153.998 41.9246 153.978 40.7601C153.972 40.4719 153.967 40.1838 153.961 39.8869C153.956 39.575 153.952 39.2631 153.947 38.9417C153.941 38.623 153.935 38.3044 153.929 37.976C153.911 36.9552 153.894 35.9343 153.878 34.9135C153.866 34.2226 153.854 33.5317 153.841 32.8408C153.816 31.3988 151.888 30.9295 151.158 32.1736C147.276 38.7933 147.276 38.7933 145.923 39.5558C144.779 39.7681 144.134 39.8486 143.145 39.2044C141.576 37.8181 140.608 36.2976 139.611 34.4456C139.314 33.907 139.016 33.3687 138.718 32.8307C138.573 32.5663 138.427 32.3019 138.277 32.0295C137.6 30.8357 135.812 31.3364 135.79 32.7085C135.786 32.9499 135.783 33.1913 135.779 33.4327C135.769 34.0434 135.762 34.654 135.755 35.2647C135.746 36.146 135.731 37.027 135.715 37.9082C135.714 38.1782 135.712 38.4483 135.71 38.7264C135.674 40.4255 135.508 42.0566 134.733 43.5863C133.601 44.3633 132.724 44.2783 131.394 44.288C131.167 44.2975 130.94 44.307 130.706 44.3167C129.035 44.3322 129.035 44.3322 128.158 43.4885C127.575 42.4212 127.419 41.594 127.371 40.3891C127.36 40.1061 127.348 39.8231 127.336 39.5316C127.325 39.2367 127.314 38.9419 127.302 38.6381C127.29 38.3399 127.278 38.0417 127.266 37.7345C127.243 37.171 126.426 36.9901 126.131 37.4702C124.172 40.6491 121.433 42.9291 117.821 44.2307C113.3 45.6244 107.876 45.0874 103.717 42.9205C103.052 42.5348 102.466 42.1483 101.921 41.7111C101.243 41.1667 100.142 41.4902 100.037 42.3532C99.8904 43.5605 98.8809 44.4803 97.6649 44.5025C97.131 44.5123 96.602 44.5161 95.963 44.5122C95.6038 44.5114 95.2445 44.5106 94.8744 44.5097C94.4812 44.5059 94.088 44.502 93.6949 44.4981C93.277 44.496 92.8592 44.4942 92.4413 44.4926C91.3109 44.4875 90.1805 44.4788 89.05 44.4692C87.8662 44.4596 86.6823 44.4529 85.4984 44.4458C83.5118 44.4333 81.5252 44.4184 79.5387 44.402C77.2411 44.3832 74.9434 44.3685 72.6458 44.356C70.4347 44.3438 68.2237 44.3285 66.0127 44.3117C65.0717 44.3047 64.1308 44.2988 63.1899 44.2939C62.0831 44.288 60.9764 44.2792 59.8697 44.2684C59.4631 44.2648 59.0566 44.2623 58.6501 44.2607C58.0961 44.2585 57.5422 44.2524 56.9883 44.2461C56.5229 44.2426 56.5229 44.2426 56.0482 44.239C55.2863 44.1621 55.2863 44.1621 54.4471 43.5863C54.2645 42.6991 54.3175 41.792 54.3247 40.8873C54.3191 40.6386 54.3135 40.39 54.3078 40.1338C54.3091 38.3265 54.3091 38.3265 54.9268 37.3853C56.3655 36.4387 58.0619 36.6424 59.7097 36.6588C61.1274 36.6663 62.2854 35.5243 62.2914 34.1066C62.3053 30.8117 62.3161 27.5168 62.3233 24.2218C62.3277 22.2941 62.3336 20.3665 62.3432 18.4389C62.3523 16.5797 62.3573 14.7205 62.3595 12.8612C62.361 12.1508 62.3641 11.4404 62.3686 10.73C62.3747 9.7373 62.3755 8.74474 62.3751 7.75203C62.3782 7.45632 62.3812 7.16061 62.3843 6.85594C62.3825 6.45083 62.3825 6.45083 62.3808 6.03754C62.3816 5.80268 62.3823 5.56781 62.3831 5.32584C62.2534 4.56555 62.0299 4.32178 61.4406 3.8568C60.1839 3.42567 59.2522 3.32128 58.0182 3.82307C52.4884 7.47348 46.9404 11.4288 41.8028 15.5462C41.2056 16.0231 40.606 16.4968 40.0065 16.9706C39.5515 17.3316 39.0965 17.6926 38.6416 18.0536C38.4272 18.2227 38.2128 18.3917 37.9919 18.5659C37.6861 18.8094 37.6861 18.8094 37.3741 19.0579C37.1936 19.2009 37.0131 19.3439 36.8271 19.4912C35.3881 20.6507 35.3881 20.6507 34.6901 22.3211C34.6899 22.6597 34.6897 22.9982 34.6895 23.3469C34.6875 23.5348 34.6855 23.7228 34.6834 23.9164C34.6782 24.5346 34.6826 25.1523 34.687 25.7706C34.6847 26.2026 34.6818 26.6346 34.6782 27.0667C34.6702 28.2028 34.67 29.3387 34.672 30.4748C34.6741 32.291 34.6652 34.1071 34.6545 35.9232C34.6521 36.5552 34.6535 37.187 34.6555 37.819C34.6546 38.2101 34.6535 38.6012 34.6524 38.9922C34.6531 39.5007 34.6531 39.5007 34.6539 40.0194C34.5521 41.4694 34.3853 42.5832 33.4437 43.7026C32.3598 44.3125 31.3973 44.3256 30.1927 44.3157C29.9506 44.3181 29.7084 44.3206 29.4589 44.3232C28.6598 44.3297 27.8609 44.3278 27.0618 44.3251C26.5047 44.3267 25.9476 44.3285 25.3905 44.3306C24.2229 44.3336 23.0555 44.3322 21.8879 44.328C20.395 44.3231 18.9025 44.3298 17.4096 44.34C16.2589 44.3463 15.1082 44.3459 13.9574 44.3435C13.4072 44.3433 12.857 44.3452 12.3069 44.3495C11.5355 44.3545 10.7647 44.3503 9.99338 44.3438C9.65561 44.3488 9.65561 44.3488 9.31102 44.354C7.65161 44.3256 6.49433 43.8164 5.21242 42.7226C4.56866 41.3976 4.81784 39.6239 4.77969 38.1579C4.7739 37.9472 4.76812 37.7365 4.76215 37.5194C4.59863 31.4396 4.59059 25.3575 4.58573 19.2758C4.58417 17.6058 4.57736 15.9358 4.56951 14.2657C4.56432 12.9669 4.56285 11.6681 4.56242 10.3692C4.56157 9.7525 4.55934 9.13576 4.55565 8.51904C4.5509 7.66541 4.5514 6.81195 4.55322 5.95831C4.55064 5.70697 4.54807 5.45563 4.54541 5.19667C4.55454 3.83456 4.64235 2.95236 5.49216 1.84154C7.41984 -0.0872076 9.65366 0.0302913 12.1849 0.0391168ZM72.8052 9.66868C70.9317 12.2934 71.1115 15.2419 71.13 18.3561C71.1301 18.8402 71.13 19.3243 71.1296 19.8084C71.1296 20.8182 71.1325 21.8279 71.1376 22.8377C71.1439 24.1314 71.1441 25.4249 71.1422 26.7186C71.1413 27.7162 71.1431 28.7137 71.1459 29.7112C71.1469 30.1884 71.1473 30.6655 71.1468 31.1427C71.1467 31.8082 71.1502 32.4737 71.1548 33.1392C71.1561 33.5175 71.1574 33.8959 71.1587 34.2856C71.2704 35.743 72.5041 36.7696 73.9656 36.7526C74.224 36.7495 74.4836 36.743 74.7426 36.7454C76.7474 36.765 78.7522 36.7915 80.7571 36.7994C81.1016 36.807 81.1016 36.807 81.453 36.8147C81.6695 36.8138 81.8861 36.813 82.1091 36.8121C84.332 36.832 84.8619 34.8955 84.8358 32.924C84.8378 32.6613 84.8398 32.3985 84.8419 32.1278C84.8466 31.2595 84.8411 30.3916 84.8352 29.5233C84.8354 28.9203 84.8361 28.3173 84.8372 27.7142C84.838 26.4506 84.8339 25.1872 84.8262 23.9236C84.8167 22.3023 84.8184 20.6812 84.8236 19.0598C84.8266 17.8148 84.8241 16.5698 84.8199 15.3248C84.8184 14.7269 84.8186 14.129 84.8203 13.531C84.8218 12.6963 84.8162 11.8619 84.8085 11.0271C84.8103 10.779 84.8121 10.5308 84.814 10.2752C84.8084 8.95376 84.8084 8.95376 84.1376 7.8783C82.8468 7.27568 81.382 7.46478 79.9911 7.47348C79.5099 7.46485 79.5099 7.46485 79.0191 7.45605C76.5875 7.45748 74.535 7.792 72.8052 9.66868ZM107.878 21.4184C106.076 23.4021 105.646 26.0991 105.535 28.7597C105.656 31.5401 106.098 34.4322 108.158 36.3889C109.773 37.6156 111.21 37.9622 113.193 37.8284C114.964 37.4033 116.468 36.8453 117.484 35.2104C119.327 31.7353 119.364 28.1802 118.518 24.3986C117.974 22.5856 117.095 21.3635 115.483 20.4288C112.818 19.2532 110.137 19.5069 107.878 21.4184Z" fill="#0576F7"/>
</svg>
