<svg width="670" height="128" viewBox="0 0 670 128" fill="none" xmlns="http://www.w3.org/2000/svg">
<path d="M545.691 38.5725C545.691 39.3522 546.884 39.5614 547.187 38.8423C550.389 31.2898 554.856 24.7005 560.575 19.0788C566.353 13.4577 573.105 9.08514 580.83 5.96211C588.611 2.83892 597.05 1.27705 606.147 1.27705C615.132 1.27706 623.459 2.83893 631.124 5.96211C638.849 9.08518 645.625 13.4577 651.463 19.0788C657.298 24.6435 661.848 31.1738 665.107 38.6691C668.369 46.1648 670 54.2879 670 63.033C670 71.1525 668.596 78.7608 665.793 85.8586C663.938 90.6187 661.585 95.0034 658.734 99.0112C656.401 102.293 656.329 106.782 659.021 109.782L661.601 112.655C664.532 115.918 664.217 120.911 660.907 123.793L658.331 126.034C655.017 128.917 649.96 128.591 647.052 125.308L643.651 121.466C641.118 118.603 636.891 117.987 633.397 119.585C630.187 121.053 626.825 122.274 623.311 123.25C617.588 124.84 611.582 125.635 605.289 125.635C596.479 125.635 588.268 124.105 580.659 121.039C573.049 117.916 566.353 113.571 560.575 108.007C554.856 102.385 550.389 95.7959 547.187 88.2431C546.884 87.5227 545.691 87.7307 545.691 88.511V120.264C545.691 123.505 543.031 126.132 539.753 126.132H517.79C517.782 126.132 517.774 126.124 517.774 126.114C517.774 126.105 517.766 126.097 517.758 126.097H503.074C498.667 126.097 495.098 122.57 495.098 118.219V74.4418C495.098 68.9278 493.615 64.4722 490.647 61.0789C487.744 57.686 483.449 55.9899 477.762 55.9899C474.193 55.9903 470.986 56.7804 468.143 58.3556C465.299 59.9311 463.062 62.0522 461.427 64.718C459.855 67.3231 459.066 70.3222 459.066 73.7147V118.558C459.066 122.909 455.496 126.435 451.089 126.435H440.549C436.142 126.435 432.573 122.909 432.573 118.558V74.4418C432.573 68.9278 431.089 64.4722 428.126 61.0789C425.159 57.686 420.864 55.9899 415.237 55.9899C411.607 55.9903 408.373 56.78 405.529 58.3556C402.746 59.9311 400.536 62.0518 398.901 64.718C397.33 67.3231 396.543 70.3222 396.543 73.7147V118.558C396.543 122.909 392.972 126.435 388.567 126.435H375.141C372.326 126.435 370.044 124.182 370.044 121.402V115.473C370.044 111.682 363.855 109.869 361.141 112.549C356.714 116.921 351.45 120.379 345.348 122.92C339.247 125.46 332.546 126.732 325.248 126.732C315.498 126.732 306.854 124.574 299.317 120.262C291.78 115.949 285.858 110.217 281.55 103.068C279.578 99.7213 273.683 99.333 271.394 102.477C269.473 105.116 267.331 107.574 264.967 109.853C259.176 115.374 252.27 119.666 244.247 122.727C236.224 125.788 227.355 127.32 217.643 127.32H183.452C179.047 127.32 175.476 123.793 175.476 119.442V19.2374C175.476 12.8532 168.19 9.12048 162.906 12.7975L95.1085 59.9756C92.9876 61.4511 91.7262 63.8534 91.7262 66.4152V119.442C91.7262 123.793 88.1553 127.32 83.75 127.32H7.97619C3.57106 127.32 0 123.793 0 119.442V9.15474C0 4.80401 3.57106 1.27705 7.97619 1.27705H217.643C230.553 1.27712 241.923 3.94763 251.756 9.28937C261.649 14.6312 269.342 22.043 274.832 31.5262C277.125 35.4445 278.941 39.6145 280.283 44.0359C281.332 47.4899 286.667 48.7026 289.265 46.17C293.752 41.7392 299.047 38.2554 305.148 35.715C311.249 33.1746 317.95 31.9033 325.248 31.9031C334.999 31.9031 343.615 34.0599 351.093 38.373C358.63 42.6861 364.523 48.4474 368.77 55.6555C369.114 56.2258 370.044 55.9927 370.044 55.329V39.2156C370.044 36.6832 372.122 34.6303 374.686 34.6303H393.691C395.266 34.6303 396.543 35.8913 396.543 37.4469C396.543 40.2066 400.496 41.5647 402.642 39.7957C403.256 39.2902 403.886 38.8107 404.532 38.3576C407.615 36.1763 410.882 34.568 414.331 33.5379C417.837 32.4471 421.346 31.9031 424.856 31.9031C431.815 31.9031 437.741 33.4794 442.643 36.6305C448.25 40.1238 458.599 41.0034 464.302 37.6619C465.419 37.0075 466.575 36.4214 467.78 35.9035C473.83 33.2372 480.151 31.9031 486.747 31.9031C495.517 31.9031 502.444 33.5986 507.529 36.9921C510.592 39.0022 517.774 36.6489 517.774 33.0152V7.87769C517.774 3.52696 521.348 0 525.751 0H539.585C542.955 0 545.691 2.70075 545.691 6.0323V38.5725ZM151.548 99.7481C151.548 104.099 147.977 107.626 143.571 107.626H131.607C127.202 107.626 123.631 104.099 123.631 99.7481V80.0539C123.631 75.703 127.202 72.1762 131.607 72.1762H143.571C147.977 72.1762 151.548 75.703 151.548 80.0539V99.7481ZM325.248 54.3246C320.582 54.3246 316.396 55.3609 312.688 57.4288C309.039 59.4372 306.166 62.3003 304.073 66.0218C302.039 69.7436 301.023 74.1759 301.023 79.3154C301.023 84.4552 302.069 88.8871 304.162 92.609C306.256 96.3312 309.128 99.2266 312.777 101.295C316.426 103.303 320.582 104.31 325.248 104.31C329.854 104.31 333.984 103.303 337.633 101.295C341.281 99.2266 344.154 96.3308 346.248 92.609C348.341 88.8281 349.387 84.3957 349.387 79.3154C349.387 74.1759 348.341 69.7436 346.248 66.0218C344.214 62.3003 341.371 59.4372 337.722 57.4288C334.073 55.3609 329.914 54.3246 325.248 54.3246ZM606.147 23.5946C600.655 23.5946 595.566 24.5327 590.872 26.4064C586.238 28.2804 582.174 30.9471 578.685 34.4111C575.251 37.8745 572.563 42.0767 570.617 47.016C568.67 51.8994 567.701 57.3807 567.701 63.4564C567.701 71.5196 569.36 78.6178 572.679 84.7506C576.052 90.8833 580.631 95.6564 586.409 99.0635C592.244 102.47 598.824 104.172 606.147 104.172C609.525 104.172 612.783 103.774 615.929 102.979C620.695 101.69 621.756 95.9353 618.546 92.2289L613.485 86.3848C610.653 83.1155 611 78.2074 614.262 75.3592L615.854 73.9739C619.164 71.0855 624.221 71.4054 627.132 74.6876L631.654 79.7849C635.028 83.591 641.134 83.2542 642.901 78.5051C643.136 77.8726 643.359 77.2285 643.567 76.5727C644.883 72.5984 645.541 68.2255 645.541 63.4564C645.541 55.3932 643.794 48.3816 640.305 42.4194C636.815 36.4002 632.065 31.7703 626.055 28.5336C620.109 25.2405 613.469 23.5946 606.147 23.5946ZM202.259 94.5937C202.259 98.9446 205.831 102.471 210.236 102.471H215.743C221.654 102.471 226.992 101.661 231.757 100.04C236.583 98.3601 240.749 95.868 244.247 92.5668C247.745 89.2661 250.428 85.2732 252.298 80.5923C254.167 75.8511 255.106 70.4486 255.106 64.3871C255.105 56.2254 253.445 49.2939 250.129 43.5928C246.871 37.8908 242.284 33.5386 236.372 30.5376C230.461 27.5367 223.585 26.0372 215.743 26.0371H210.236C205.831 26.0371 202.259 29.5641 202.259 33.9148V94.5937Z" fill="white"/>
</svg>
