<svg width="862" height="808" viewBox="0 0 862 808" fill="none" xmlns="http://www.w3.org/2000/svg">
<path d="M379.076 41.2763C350.688 39.9958 320.936 44.0479 299.506 52.0047C280.51 59.0633 267.577 66.539 242.828 84.6809C212.395 107.069 193.23 125.295 178.032 146.137C147.875 187.526 135.066 235.51 140.45 286.524C145.689 336.265 166.133 385.115 200.684 430.214C232.964 472.351 275.111 505.448 320.512 524.27C339.635 532.24 355.918 536.64 377.714 539.796C413.954 545.045 444.1 542.367 478.29 530.859C484.523 528.733 489.963 527.085 490.35 527.141C490.737 527.197 496.794 534.922 503.733 544.288C510.736 553.664 517.253 561.85 518.339 562.534C520.631 563.985 525.329 564.731 527.984 564.128C529.007 563.881 531.774 562.505 534.099 560.998C536.415 559.556 538.61 558.491 539.034 558.75C539.466 558.944 547.021 569.058 555.797 581.192L571.889 603.274L567.773 606.694C562.992 610.61 561.227 613.251 560.648 617.249C559.91 622.344 561.406 625.655 569.75 637.595C589.488 665.867 665.163 777.492 667.054 781.255C668.247 783.469 674.787 789.683 678.523 792.068C684.128 795.645 688.327 797.109 695.752 798.118C709.69 800.071 715.25 798.046 738.464 782.776C756.88 770.63 758.772 768.929 763.487 760.921C772.076 746.166 771.641 727.801 762.372 713.159C755.565 702.429 698.927 624.373 670.334 586.325C653 563.274 652.384 562.526 648.922 560.971C644.098 558.824 640.735 558.864 635.183 561.286L630.692 563.203L613.928 540.76L597.154 518.382L600.237 515.734C604.963 511.744 606.696 506.597 605.195 501.507C604.81 500.069 598.461 490.722 590.723 480.055C583.206 469.683 577.049 460.825 577.105 460.438C577.161 460.052 579.886 456.694 583.247 453.033C605.641 427.966 619.943 399.225 627.818 363.036C636.734 321.928 631.607 271.413 613.83 225.056C584.501 148.453 523.172 85.0575 451.509 57.0998C427.578 47.7743 402.691 42.3264 379.076 41.2763ZM413.493 65.0245C442.256 71.8898 468.697 83.8832 493.939 101.431C566.369 151.818 611.759 233.447 613.717 316.751C614.855 366.623 596.786 413.648 563.771 446.591C536.988 473.326 500.218 489.463 458.894 492.498C442.655 493.701 437.486 493.479 416.4 490.425C395.249 487.362 388.378 485.708 372.808 480.03C314.023 458.612 264.031 412.396 234.67 352.379C212.826 307.738 203.453 261.084 207.181 215.801C211.115 168.178 231.925 123.592 263.559 95.1888C270.14 89.2949 278.851 83.2487 287.484 78.6396C311.689 65.6201 343.105 58.7145 372.765 59.85C376.561 60.0048 380.56 60.1231 381.61 60.1435C386.328 60.3001 406.806 63.4635 413.493 65.0245ZM584.945 504.039C584.889 504.426 562.089 520.48 543.894 532.921C538.487 536.615 532.499 540.686 530.662 542L527.285 544.407L516.969 527.902C516.932 527.844 516.895 527.786 516.858 527.727C511.163 518.726 505.496 509.77 504.273 507.827C502.978 505.862 502.051 504.081 502.162 503.768C502.328 503.529 506.441 501.952 511.365 500.229C526.33 495.089 542.195 486.918 556.617 476.893L562.107 473.08L573.522 488.361C579.808 496.777 584.973 503.846 584.945 504.039ZM598.751 550.545C607.794 562.652 615.101 572.664 614.999 572.912C614.564 573.639 587.429 591.896 586.913 591.822C586.139 591.71 554.516 548.22 554.628 547.446C554.74 546.672 580.816 528.459 581.663 528.516C581.986 528.563 589.698 538.502 598.751 550.545ZM662.923 606.583C688.546 641.501 699.032 655.924 717.255 681.475C728.199 696.82 739.87 713.06 743.096 717.609C751.762 729.596 753.38 736.151 749.305 742.013C748.077 743.678 742.835 747.593 732.077 754.594C723.561 760.208 715.664 765.187 714.53 765.747C713.395 766.307 709.984 767.129 706.878 767.667C701.688 768.496 700.905 768.448 696.604 767.233C686.879 764.376 685.454 762.852 654.213 721.722C644.59 709.07 635.288 696.926 633.441 694.683C631.657 692.45 628.331 687.688 626.09 684.072C623.839 680.52 612.591 664.538 601.076 648.584C589.497 632.62 580.096 619.342 580.133 619.084C580.199 618.633 607.696 599.243 619.949 591.01C623.824 588.346 630.19 584.396 634.009 582.118L640.983 578.058L647.455 586.106C650.957 590.563 657.924 599.736 662.923 606.583Z" fill="#3A3A3A"/>
<path d="M584.945 504.039C584.889 504.426 562.089 520.48 543.894 532.921C538.487 536.615 532.499 540.686 530.662 542L527.285 544.407L516.969 527.902L516.858 527.727C511.163 518.726 505.496 509.77 504.273 507.827C502.978 505.862 502.051 504.081 502.162 503.768C502.328 503.529 506.441 501.952 511.365 500.229C526.33 495.089 542.195 486.918 556.617 476.893L562.107 473.08L573.522 488.361C579.808 496.777 584.973 503.846 584.945 504.039Z" fill="white"/>
<path d="M662.923 606.583C688.546 641.501 699.032 655.924 717.255 681.475C728.199 696.82 739.87 713.06 743.096 717.609C751.762 729.596 753.38 736.151 749.305 742.013C748.077 743.678 742.835 747.593 732.077 754.594C723.561 760.208 715.664 765.187 714.53 765.747C713.395 766.307 709.984 767.129 706.878 767.667C701.688 768.496 700.905 768.448 696.604 767.233C686.879 764.376 685.454 762.852 654.213 721.722C644.59 709.07 635.288 696.926 633.441 694.683C631.657 692.45 628.331 687.688 626.09 684.072C623.839 680.52 612.591 664.538 601.076 648.584C589.497 632.62 580.096 619.342 580.133 619.084C580.199 618.633 607.696 599.243 619.949 591.01C623.824 588.346 630.19 584.396 634.009 582.118L640.983 578.058L647.455 586.106C650.957 590.563 657.924 599.736 662.923 606.583Z" fill="white"/>
<path d="M413.493 65.0245C442.256 71.8898 468.697 83.8832 493.939 101.431C566.369 151.818 611.759 233.447 613.717 316.751C614.855 366.623 596.786 413.648 563.771 446.591C536.988 473.326 500.218 489.463 458.894 492.498C442.655 493.701 437.486 493.479 416.4 490.425C395.249 487.362 388.378 485.708 372.808 480.03C314.023 458.612 264.031 412.396 234.67 352.379C212.826 307.738 203.453 261.084 207.181 215.801C211.115 168.178 231.925 123.592 263.559 95.1888C270.14 89.2949 278.851 83.2487 287.484 78.6396C311.689 65.6201 343.105 58.7145 372.765 59.85C376.561 60.0048 380.56 60.1231 381.61 60.1435C386.328 60.3001 406.806 63.4635 413.493 65.0245Z" fill="white"/>
<path d="M598.751 550.545C607.794 562.652 615.101 572.664 614.999 572.912C614.564 573.639 587.429 591.896 586.913 591.822C586.139 591.71 554.516 548.22 554.628 547.446C554.74 546.672 580.816 528.459 581.663 528.516C581.986 528.563 589.698 538.502 598.751 550.545Z" fill="white"/>
<path fill-rule="evenodd" clip-rule="evenodd" d="M322.623 97.8213C339.279 90.5556 359.917 87.1584 379.422 88.4033C388.617 89.0108 405.759 92.0203 415.061 94.6184C452.323 105.085 487.388 127.083 517.402 158.951C530.589 172.909 549.363 199.658 559.599 218.983C567.468 233.751 576.615 258.777 579.939 274.467C585.062 298.647 585.636 321.049 581.704 343.193C574.297 385.244 551.692 419.497 517.547 440.689C500.268 451.354 481.845 457.64 461.716 459.794C420.528 464.165 378.827 452.529 339.21 425.592C316.738 410.289 293.819 387.613 279.549 366.585C252.14 326.273 236.907 279.627 237.026 236.981C237.081 227.97 241.159 201.172 243.821 192.34C257.639 146.939 284.738 114.39 322.623 97.8213ZM467.708 187.503C439.789 162.984 412.656 146.677 387.589 139.293C383.859 138.226 376.186 136.654 370.189 135.786L359.42 134.226C348.376 133.242 337.278 134.919 333.109 135.88C319.817 138.563 306.444 144.527 295.029 152.881C277.571 165.692 265.919 182.044 258.717 204.044C256.492 210.767 253.933 228.435 253.926 237.125C253.831 266.87 261.761 297.579 277.531 328.7C280.368 334.385 288.858 349.505 300.13 364.496C321.997 392.616 351.714 416.079 382.557 429.5C390.549 432.961 400.41 436.694 400.853 436.363C405.152 437.978 416.893 441.449 429.471 442.417C442.028 443.907 453.721 444.086 455.28 442.863C459.507 442.642 469.296 441.694 474.637 439.676C474.858 439.971 478.886 438.974 483.58 437.481C491.454 434.935 492.45 434.421 496.825 430.578C517.685 412.465 532.66 383.164 537.19 351.889C538.824 340.604 539.114 333.601 538.473 322.119C537.602 305.862 534.956 292.312 529.531 276.581C527.781 271.39 525.985 266.521 525.617 265.875C523.06 260.413 517.109 248.039 513.767 242.235L509.036 234.9C506.399 230.831 501.409 223.92 497.907 219.462C494.405 215.005 490.084 209.836 488.254 207.925L484.943 204.417C482.926 202.121 475.262 194.499 471.682 190.975L467.708 187.503Z" fill="#3A3A3A"/>
<path d="M669.641 131.619C666.809 132.987 634.622 166.576 633.733 169.081C632.213 173.667 634.967 178.741 639.417 179.385C643.415 179.964 645.509 178.687 652.932 171.072C679.523 143.848 679.994 143.324 680.507 139.777C680.918 136.94 680.754 136.257 679.1 134.043C677.555 131.976 676.773 131.467 674.452 131.131C672.775 130.888 670.766 131.124 669.641 131.619Z" fill="#3A3A3A"/>
<path d="M710.284 186.356C709.528 186.575 697.829 189.621 684.286 193.124C656.859 200.212 655.181 200.891 654.462 205.856C653.967 209.274 654.644 211.413 656.834 213.113C660.302 215.985 660.579 215.894 700.24 205.705C718.3 201.013 719.795 200.242 720.56 194.954C721.205 190.505 719.193 187.58 714.79 186.613C713.067 186.232 711.04 186.136 710.284 186.356Z" fill="#3A3A3A"/>
<path d="M664.695 241.578C659.078 243.99 658.114 252.014 663 255.553C664.969 256.957 694.951 267.686 700.68 269.043C704.815 270.036 704.954 269.991 707.583 268.199C712.63 264.716 712.652 258.202 707.636 255.105C705.105 253.487 671.45 241.305 668.483 240.875C667.581 240.745 665.884 241.092 664.695 241.578Z" fill="#3A3A3A"/>
<path d="M126.224 381.574C124.684 382.207 123.604 383.302 122.827 385.032C121.698 387.371 121.771 387.776 123.548 393.235C131.362 417.015 151.272 446.826 172.611 466.771C178.93 472.69 188.388 480.116 190.985 481.283C196.684 483.754 201.982 478.991 200.225 472.943C199.913 471.91 197.918 469.778 195.194 467.671C182.498 457.603 171.049 445.74 160.571 431.713C149.377 416.727 141.489 402.549 136.788 389.095C134.14 381.47 131.213 379.4 126.224 381.574Z" fill="#3A3A3A"/>
<path d="M723.267 486.746C722.179 487.444 719.104 490.488 716.5 493.469C713.886 496.514 709.795 501.122 707.321 503.661C702.889 508.352 702.751 508.398 698.308 509.071C695.745 509.49 689.515 510.233 684.372 510.739C679.23 511.246 674.483 511.743 673.801 511.908C672.095 512.319 670.238 515.144 669.817 518.046C669.332 521.399 670.692 523.374 677.729 529.331C683.304 534.023 691.987 542.259 691.912 542.775C691.707 544.194 695.109 571.614 695.587 572.407C697.451 575.443 702.028 577.027 704.804 575.586C705.653 575.182 710.057 570.685 714.6 565.681C726.771 552.103 724.059 553.554 740.317 551.761C748.142 550.919 754.889 549.789 755.692 549.247C759.254 546.932 760.369 541.958 758.034 538.987C757.428 538.175 752.682 533.669 747.558 529.042C740.521 522.624 738.085 519.901 737.489 518.103C737.022 516.785 736.012 510.121 735.214 503.356C733.502 488.36 733.565 488.83 731.476 487.342C728.918 485.458 725.657 485.249 723.267 486.746Z" fill="#3A3A3A"/>
<path d="M135.732 464.984C133.785 466.15 133.434 466.758 133.032 469.531C132.593 472.561 132.786 473.05 135.46 476.861C139.172 482.139 145.581 489.256 151.744 494.889C157.272 499.903 165.508 505.77 167.507 506.06C169.828 506.396 173.195 504.514 174.315 502.24C176.155 498.622 175.027 495.957 169.829 491.846C161.144 484.992 153.952 477.828 146.524 468.654C143.509 464.925 142.681 464.279 140.488 463.961C138.683 463.7 137.254 464.019 135.732 464.984Z" fill="#3A3A3A"/>
<path d="M119.857 521.876C78.0859 522.542 30.2781 557.161 15.7702 597.327C12.389 606.581 10.823 620.576 12.0499 629.378C16.6067 660.191 38.6236 682.275 69.318 686.721C87.438 689.345 106.714 684.895 125.174 673.809C130.147 670.842 133.968 667.643 133.573 666.73C133.436 666.315 133.51 666.26 133.795 666.564C134.576 667.533 143.575 659.949 149.614 653.252C160.068 641.533 170.828 623.603 176.09 609.091C189.375 572.369 176.577 538.913 144.461 526.098C138.679 523.746 126.915 521.779 119.857 521.876ZM136.932 540.809C151.445 545.61 160.767 556.704 163.868 573.02C164.863 577.97 164.814 579.214 163.59 588.122C162.058 598.698 160.862 602.409 155.776 612.074C142.143 638.015 114.433 657.966 87.0682 661.443C81.234 662.178 79.3359 662.1 71.4044 660.952C64.1177 659.896 61.3271 659.163 57.1103 657.367C29.4618 645.528 21.216 621.093 35.5335 593.606C51.1086 563.799 88.0786 539.461 119.576 538.361C126.46 538.107 130.265 538.658 136.932 540.809Z" fill="#3A3A3A"/>
<path d="M136.932 540.809C151.445 545.61 160.767 556.704 163.868 573.02C164.863 577.97 164.814 579.214 163.59 588.122C162.058 598.698 160.862 602.409 155.776 612.074C142.143 638.015 114.433 657.966 87.0682 661.443C81.234 662.178 79.3359 662.1 71.4044 660.952C64.1177 659.896 61.3271 659.163 57.1103 657.367C29.4618 645.528 21.216 621.093 35.5335 593.606C51.1086 563.799 88.0786 539.461 119.576 538.361C126.46 538.107 130.265 538.658 136.932 540.809Z" fill="white"/>
<path d="M134.131 559.757C131.19 560.517 131.024 560.756 100.026 603.406C94.7502 610.74 90.2697 616.674 90.0762 616.646C89.8828 616.618 86.5626 608.632 82.702 598.922C78.8322 589.276 74.9427 580.219 73.9501 578.89C72.636 577.054 71.7341 576.463 69.7351 576.173C64.7054 575.445 60.2751 579.214 61.0128 583.666C61.1671 584.874 65.8241 597.267 71.3719 611.238C81.7794 637.566 82.6515 639.272 86.6495 639.852C87.5523 639.982 89.3036 639.709 90.6222 639.242C93.2593 638.307 93.278 638.178 118.732 603.35C127.537 591.194 136.563 578.873 138.781 575.837C143.622 569.23 144.365 566.375 142.095 562.952C140.469 560.544 136.74 559.016 134.131 559.757Z" fill="#3A3A3A"/>
<path d="M313.528 571.121C298.886 570.844 275.684 575.581 256.457 582.87C237.369 590.112 204.346 608.109 199.912 613.722C196.864 617.494 199.194 623.23 204.03 623.93C206.287 624.257 207.264 623.872 212.302 620.454C230.405 608.196 248.814 599.275 269.597 592.607C295.497 584.244 317.358 582.407 328.718 587.608C335.209 590.523 339.461 597.986 338.747 605.19L338.371 608.691L331.395 609.129C305.932 610.84 283.551 619.449 276.094 630.483C263.544 648.943 279.186 665.495 303.543 659.608C319.648 655.686 338.844 640.427 346.909 625.202C348.361 622.449 348.739 622.109 351.071 621.92C355.071 621.578 387.552 626.414 394.772 628.381C429.575 638.096 451.474 650.09 463.827 666.166C470.242 674.601 473.001 682.374 472.835 691.699C472.787 697.486 473.539 699.57 476.329 700.764C478.805 701.847 481.303 701.418 483.61 699.58C488.151 695.958 486.617 679.277 480.65 667.747C477.63 661.779 470.175 652.338 464.463 647.231C452.118 636.094 433.607 626.171 413.145 619.718C398.171 614.916 389.163 613.019 369.835 610.549L352.129 608.248L352.037 603.428C351.75 589.956 343.672 578.91 330.67 574.13C326.858 572.722 318.319 571.222 313.528 571.121ZM332.732 622.622C332.592 623.589 326.682 630.304 322.712 634.075C310.832 645.192 293.341 650.954 286.54 646.085C284.995 644.94 284.802 644.451 285.157 642C286.38 633.553 303.056 625.697 325.987 622.83C332.688 622.023 332.817 622.042 332.732 622.622Z" fill="#3A3A3A"/>
</svg>
