<svg width="538" height="447" viewBox="0 0 538 447" fill="none" xmlns="http://www.w3.org/2000/svg">
<path d="M254.359 31.8228C253.662 32.2741 252.919 33.0439 252.76 33.5115C252.556 33.9851 251.413 41.9894 250.179 51.2994C248.159 66.6475 247.99 68.365 248.632 69.482C250.078 71.9171 253.169 72.345 255.126 70.34C256.341 69.1048 256.537 67.9187 259.061 49.3805C260.399 39.5212 260.826 34.7806 260.537 33.9723C259.618 31.4659 256.669 30.439 254.359 31.8228Z" fill="#353535"/>
<path d="M206.585 47.2664C205.86 48.1676 205.692 48.9039 205.889 50.349C206.164 52.0509 207.137 53.3014 217.183 64.5592C223.273 71.3143 228.806 77.253 229.49 77.6953C232.389 79.6656 236.252 76.9115 235.753 73.233C235.604 72.1382 214.238 47.7888 212.216 46.3684C210.499 45.2189 207.79 45.6311 206.585 47.2664Z" fill="#353535"/>
<path d="M56.5488 83.284C49.2329 85.5702 40.5538 90.628 34.0317 96.4634C29.9313 100.097 26.2525 104.209 22.2763 109.743C9.61657 127.204 6.88361 146.172 15.5066 157.133C16.7515 158.748 20.7578 162.307 30.0098 170.015C35.8941 174.925 40.819 176.71 47.9644 176.454C62.6991 175.926 78.6538 166.313 90.4743 150.883C102.894 134.614 106.557 115.922 99.654 103.836C97.9065 100.817 85.535 87.8684 82.1947 85.6013C78.6554 83.1828 73.8597 81.6929 69.0233 81.5465C64.2745 81.3882 61.3405 81.7864 56.5488 83.284ZM72.6776 90.7282C81.4652 93.3711 84.7839 101.394 81.9024 113.024C78.7775 125.489 68.0643 139.876 55.7309 148.24C49.3192 152.588 44.561 154.661 38.647 155.776C32.5579 156.915 28.7925 156.445 25.1976 153.944C21.6146 151.532 20.1573 149.009 19.4798 144.017C17.0811 126.013 35.9998 100.121 57.4687 92.0341C59.0355 91.4201 61.9019 90.8527 65.0608 90.4686C69.4139 90.0116 70.4887 90.0441 72.6776 90.7282Z" fill="#353535"/>
<path d="M72.6776 90.7282C81.4652 93.3711 84.7839 101.394 81.9024 113.024C78.7775 125.489 68.0643 139.876 55.7309 148.24C49.3192 152.588 44.561 154.661 38.647 155.776C32.5579 156.915 28.7925 156.445 25.1976 153.944C21.6146 151.532 20.1573 149.009 19.4798 144.017C17.0811 126.013 35.9998 100.121 57.4687 92.0341C59.0355 91.4201 61.9019 90.8527 65.0608 90.4686C69.4139 90.0116 70.4887 90.0441 72.6776 90.7282Z" fill="#F1F1F1"/>
<path d="M404.895 54.2961C403.373 54.9042 395.182 57.9779 386.654 61.1868C378.125 64.3957 363.837 69.858 354.85 73.3074C339.635 79.1631 302.705 93.2727 298.883 94.6834L297.228 95.3093L295.059 92.7941C289.764 86.6446 282.759 83.0018 275.425 82.5254C271.102 82.2201 267.841 82.8409 262.239 84.9391C260.29 85.6942 247.011 90.7072 232.717 96.1257C218.417 101.5 205.796 106.424 204.716 107.017C196.742 111.354 193.008 118.997 193.55 129.894C193.67 132.42 193.654 134.607 193.585 134.751C193.465 134.856 191.998 135.546 190.262 136.227C187.041 137.467 185.392 138.137 156.416 149.071C146.747 152.747 133.556 157.748 127.151 160.178C120.747 162.608 110.482 166.499 104.378 168.843C91.7765 173.586 91.7327 173.592 90.0258 175.474C87.317 178.517 87.5466 174.294 85.1067 257.532C83.1956 323.305 82.6562 344.963 82.8226 346.19C83.31 349.78 84.5749 351.214 97.4287 363.117C104.365 369.534 116.882 381.259 125.233 389.224C133.577 397.145 140.879 403.958 141.371 404.293C141.912 404.665 143.326 405.232 144.58 405.597C146.763 406.237 147.376 406.154 184.602 401.459C205.345 398.867 250.316 393.076 284.497 388.615L346.634 380.495L347.511 379.395C348.696 377.941 348.864 376.223 347.993 374.736C346.53 372.169 349.575 371.935 291.662 379.303C262.555 383.03 229.364 387.223 217.911 388.599C198.432 390.974 197.287 391.085 200.494 390.07C214.356 385.736 244.874 375.975 252.51 373.423L261.769 370.338L264.601 371.157C269.154 372.502 272.219 372.086 282.786 368.779C309.677 360.224 343.541 349.161 346.281 347.987C350.456 346.216 353.343 341.855 352.881 338.127C352.78 337.383 352.822 336.708 352.954 336.69C353.217 336.654 375.111 329.402 377.197 328.673L378.388 328.243L378.545 331.701C378.631 333.651 379.194 337.143 379.833 339.553C385.06 360.652 403.286 379.273 427.069 387.909C445.976 394.798 464.879 393.436 478.487 384.276C483.473 380.923 485.961 378.222 495.164 366.18C502.891 356.078 504.664 352.716 506.162 345.02C510.136 324.68 498.821 301.776 476.946 285.835C474.228 283.885 469.935 281.167 467.388 279.818L462.78 277.411L466.539 276.187C468.581 275.464 471.076 274.457 472.073 273.92C474.307 272.636 476.298 269.556 476.749 266.64C477.483 261.858 471.878 212.67 463.894 154.171C457.91 110.073 456.663 102.527 455.066 100.291C453.408 97.9293 422.403 63.025 416.211 56.5067C414.387 54.5689 411.627 53.2933 409.215 53.2639C408.365 53.2454 406.424 53.7318 404.895 54.2961ZM408.136 63.7124C408.895 65.0365 424.339 187.055 427.782 218.342C429.209 231.483 429.42 230.74 423.538 232.743C418.977 234.298 389.316 244.79 375.456 249.793C345.519 260.545 297.709 277.291 296.395 277.469C295.913 277.535 295.322 277.124 294.959 276.416C294.199 275.092 292.875 265.995 293.33 265.398C293.525 265.193 304.791 261.122 318.38 256.424C331.969 251.725 350.357 245.261 359.248 242.092C368.145 238.967 377.719 235.571 380.532 234.61C391.495 230.937 410.799 223.991 411.916 223.349C412.538 222.997 413.269 222.14 413.492 221.485C413.982 220.17 411.256 195.476 405.011 143.877C403.233 129.133 400.788 108.816 399.591 98.677L397.401 80.2432L396.275 79.504C395.342 78.8725 394.58 78.8421 390.951 79.3792C387.492 79.8486 385.356 80.5399 378.794 83.1251C367.619 87.5404 364.063 89.2718 362.382 91.0162C361.602 91.8357 360.208 92.7384 359.35 92.9886C356.826 93.7772 338.817 100.413 310.587 110.934C296.118 116.376 283.925 120.841 283.487 120.9C282.874 120.983 282.77 120.551 282.526 117.106C282.112 111.097 282.198 110.416 283.257 110.005C283.764 109.802 291.66 106.858 300.734 103.396C309.858 99.9728 324.234 94.4987 332.756 91.2459C341.279 87.9932 352.139 83.8882 356.939 82.1219C373.086 76.2289 375.379 75.3826 388.967 70.0154C396.418 67.0865 403.275 64.3721 404.209 64.0224C406.747 63.009 407.716 62.922 408.136 63.7124ZM423.778 78.0906L429.26 84.304L435.448 130.559C441.21 173.349 447.578 225.199 448.696 238.694L449.205 244.423L443.951 238.892C441.09 235.891 438.479 233.079 438.157 232.677C437.872 232.225 437.638 230.829 437.594 229.185C437.519 224.691 431.364 173.749 424.521 121.026C420.986 93.9896 418.16 71.8513 418.203 71.8454C418.247 71.8394 420.765 74.6196 423.778 78.0906ZM356.792 105.689C360.627 119.485 373.159 127.372 389.223 126.129L393.857 125.768L397.008 149.646C398.704 162.795 400.151 174.773 400.222 176.28L400.365 178.981L397.373 180.591C381.602 188.931 370.429 206.502 369.239 224.681C369.104 226.974 368.808 229.065 368.619 229.314C368.013 230.11 293.063 256.203 292.647 255.768C292.492 255.611 292.098 252.052 291.753 247.862L291.075 240.239L294.871 236.334C311.316 219.162 318.979 199.391 316.422 180.874C314.655 168.18 309.251 158.924 299.501 151.818C296.529 149.635 290.438 146.492 286.94 145.361C284.888 144.703 284.684 144.508 284.493 143.107C284.193 140.561 283.6 130.607 283.795 130.402C283.871 130.303 292.995 126.879 304.079 122.788C325.271 114.962 348.482 106.237 352.418 104.677C356.141 103.191 356.097 103.197 356.792 105.689ZM443.647 100.28C445.712 102.675 447.736 105.433 448.13 106.361C449.759 110.154 468.666 258.996 468.05 263.004C467.906 263.916 467.403 263.494 463.457 259.391C457.792 253.47 457.631 253.269 458.036 251.653C458.86 248.196 453.454 201.791 445.069 140.001C441.432 113.201 439.182 95.3109 439.431 95.5001C439.686 95.7331 441.577 97.8401 443.647 100.28ZM194.661 147.939C194.873 149.828 194.963 152.135 194.901 152.991L194.802 154.565L187.621 157.19C183.63 158.668 174.751 161.925 167.865 164.42C160.984 166.959 151.046 170.627 145.789 172.634C135.813 176.351 126.344 179.866 118.399 182.773C103.191 188.36 104.386 187.306 104.256 195.217C104.16 201.741 103.79 219.72 103.688 223.569C103.026 243.995 102 280.794 101.988 283.337C101.969 285.169 101.672 295.466 101.297 306.176C100.686 323.696 100.697 325.746 101.385 326.545C101.813 327.067 102.529 327.416 103.011 327.35C103.93 327.225 132.866 317.635 133.825 317.148C134.12 317.018 144.056 313.663 155.915 309.69C167.78 305.761 182.927 300.717 189.624 298.47C196.321 296.224 202.254 294.259 202.773 294.144L203.8 293.826L204.575 300.188C205.044 303.647 205.355 306.593 205.273 306.649C205.122 306.848 156.728 322.914 133.106 330.58C104.229 339.94 92.6784 343.559 91.9859 343.385C91.574 343.307 91.3713 342.8 91.3957 341.993C91.4379 341.319 91.6381 333.264 91.8768 324.178C92.5066 301.214 94.5788 229.399 95.1225 213.359C95.3422 206.105 95.655 196.251 95.8073 191.458C95.976 186.128 96.2769 182.43 96.6435 181.845C97.0798 181.117 100.196 179.758 109.909 176.076C116.908 173.431 135.909 166.215 152.108 160.047C168.313 153.923 184.262 147.879 187.526 146.633C190.791 145.387 193.642 144.376 193.867 144.39C194.092 144.404 194.443 146.007 194.661 147.939ZM195.83 164.772C195.794 165.491 196.009 168.717 196.274 171.981L196.813 177.929L192.841 182.839C182.918 195.156 177.382 208.261 176.298 221.966C175.881 227.106 177.373 238.098 179 242.203C183.004 252.318 190.093 260.187 199.323 264.776C200.899 265.544 202.224 266.434 202.265 266.741C202.444 268.055 203.329 284.435 203.253 284.535C203.14 284.684 189.119 289.486 169.448 296.035C161.943 298.57 152.383 301.74 148.248 303.149C144.114 304.557 140.618 305.745 140.53 305.757C140.443 305.769 139.992 304.091 139.537 302.057C138.454 297.03 137.643 295 134.997 290.944C130.712 284.345 123.527 280.37 114.981 279.835C112.82 279.682 110.997 279.394 110.879 279.187C110.689 278.767 111.939 231.458 112.204 228.479C112.326 227.08 112.565 226.869 115.293 225.607C123.207 221.812 130.888 214.66 135.795 206.457C139.507 200.289 141.49 193.866 142.529 184.761C142.709 183.131 142.93 182.789 144.126 182.403C144.847 182.127 156.489 177.871 169.905 172.884C183.327 167.941 194.675 163.814 195.107 163.711C195.758 163.578 195.919 163.779 195.83 164.772ZM437.675 245.229C442.216 250.098 443.027 251.148 442.444 251.45C442.03 251.685 439.517 252.561 436.83 253.461C434.142 254.361 409.208 262.873 381.423 272.397C320.014 293.441 311.4 296.349 310.976 296.184C310.309 295.873 301.075 285.665 301.264 285.416C301.378 285.267 306.14 283.55 311.847 281.571C317.555 279.593 327.391 276.162 333.688 273.925C344.715 270.065 426.83 240.903 428.566 240.222C429.03 240.025 430.069 239.795 430.808 239.65C432.16 239.422 432.514 239.731 437.675 245.229ZM455.102 263.557C458.434 267.074 459.834 268.847 459.513 269.113C459.231 269.33 456.718 270.206 453.931 271.03L448.783 272.532L444.132 271.78C437.334 270.651 434.229 270.448 428.021 270.711C421.276 270.958 414.852 272.588 408.613 275.575C402.204 278.63 395.242 284.837 392.33 290.004L391.153 292.171L384.03 294.565C380.146 295.85 371.194 298.893 364.158 301.275C338.235 310.056 327.68 313.451 327.081 313.309C326.344 313.141 317.963 304.289 317.868 303.588C317.838 303.369 319.612 302.638 321.786 301.897C326.042 300.528 337.254 296.696 382.827 281.12C383.461 280.904 384.101 280.685 384.748 280.464C437.298 262.495 448.424 258.711 449.338 258.542C449.995 258.453 451.56 259.801 455.102 263.557ZM434.91 279.409C460.306 280.869 485.339 298.388 495.015 321.38C497.209 326.702 498.632 335.874 498.016 340.863C496.976 349.3 492.068 357.503 485.438 361.881C480.157 365.363 475.526 367.061 468.645 367.951C459.23 369.228 452.167 368.448 441.929 364.976C419.071 357.241 400.283 337.759 396.162 317.581C393.244 303.304 399.336 290.035 411.649 283.815C418.072 280.535 426.551 278.938 434.91 279.409ZM209.829 315.574C210.163 316.064 212.675 318.8 215.38 321.644C220.108 326.577 220.275 326.822 219.309 327.266C218.764 327.518 214.585 328.932 210.019 330.444C205.452 331.956 198.618 334.177 194.865 335.444C151.19 349.8 111.132 362.55 110.215 362.363C109.292 362.131 97.8163 351.513 98.1251 351.159C98.2764 350.96 103.695 349.155 110.153 347.119C126.025 342.155 196.191 319.254 205.601 315.97C207.262 315.388 208.709 314.879 208.878 314.811C209.053 314.788 209.457 315.134 209.829 315.574ZM385.847 304.665C385.428 305.524 383.941 309.026 382.53 312.429L379.98 318.617L363.073 324.167C353.77 327.258 345.295 329.88 344.244 330.023L342.367 330.322L338.125 325.68C335.812 323.095 333.996 320.889 334.104 320.696C334.375 320.391 383.966 303.627 385.531 303.325L386.576 303.139L385.847 304.665ZM232.465 339.751C235.469 342.822 237.87 345.395 237.794 345.495C237.485 345.849 163.061 369.908 139.354 377.273C127.967 380.781 129.515 381.016 123.114 374.928C120.141 372.076 117.807 369.672 117.883 369.573C117.953 369.429 123.979 367.497 131.207 365.222C152.291 358.57 217.338 337.389 223.805 335.084C224.738 334.735 225.853 334.405 226.285 334.302C226.805 334.187 228.879 336.001 232.465 339.751ZM249.793 358.004C254.032 362.29 254.893 363.377 254.304 363.635C252.837 364.325 203.546 380.023 172.992 389.521C157.415 394.356 147.977 397.108 147.253 397.028C145.979 396.844 136.429 387.927 136.933 387.368C137.084 387.169 143.443 385.058 151.097 382.636C169.155 377.019 204.497 365.667 226.108 358.632C235.499 355.529 243.491 352.972 243.879 352.875C244.311 352.772 246.635 354.776 249.793 358.004Z" fill="#353535"/>
<path d="M408.136 63.7124C408.895 65.0365 424.339 187.055 427.782 218.342C429.209 231.483 429.42 230.74 423.538 232.743C418.977 234.298 389.316 244.79 375.456 249.793C345.519 260.545 297.709 277.291 296.395 277.469C295.913 277.535 295.322 277.124 294.959 276.416C294.199 275.092 292.875 265.995 293.33 265.398C293.525 265.193 304.791 261.122 318.38 256.424C331.969 251.725 350.357 245.261 359.248 242.092C368.145 238.967 377.719 235.571 380.532 234.61C391.495 230.937 410.799 223.991 411.916 223.349C412.538 222.997 413.269 222.14 413.492 221.485C413.982 220.17 411.256 195.476 405.011 143.877C403.233 129.133 400.788 108.816 399.591 98.677L397.401 80.2432L396.275 79.504C395.342 78.8725 394.58 78.8421 390.951 79.3792C387.492 79.8486 385.356 80.5399 378.794 83.1251C367.619 87.5404 364.063 89.2718 362.382 91.0162C361.602 91.8357 360.208 92.7384 359.35 92.9886C356.826 93.7772 338.817 100.413 310.587 110.934C296.118 116.376 283.925 120.841 283.487 120.9C282.874 120.983 282.77 120.551 282.526 117.106C282.112 111.097 282.198 110.416 283.257 110.005C283.764 109.802 291.66 106.858 300.734 103.396C309.858 99.9728 324.234 94.4987 332.756 91.2459C341.279 87.9932 352.139 83.8882 356.939 82.1219C373.086 76.2289 375.379 75.3826 388.967 70.0154C396.418 67.0865 403.275 64.3721 404.209 64.0224C406.747 63.009 407.716 62.922 408.136 63.7124Z" fill="#F1F1F1"/>
<path d="M194.661 147.939C194.873 149.828 194.963 152.135 194.901 152.991L194.802 154.565L187.621 157.19C183.63 158.668 174.751 161.925 167.865 164.42C160.984 166.959 151.046 170.627 145.789 172.634C135.813 176.351 126.344 179.866 118.399 182.773C103.191 188.36 104.386 187.306 104.256 195.217C104.16 201.741 103.79 219.72 103.688 223.569C103.026 243.995 102 280.794 101.988 283.337C101.969 285.169 101.672 295.466 101.297 306.176C100.686 323.696 100.697 325.746 101.385 326.545C101.813 327.067 102.529 327.416 103.011 327.35C103.93 327.225 132.866 317.635 133.825 317.148C134.12 317.018 144.056 313.663 155.915 309.69C167.78 305.761 182.927 300.717 189.624 298.47C196.321 296.224 202.254 294.259 202.773 294.144L203.8 293.826L204.575 300.188C205.044 303.647 205.355 306.593 205.273 306.649C205.122 306.848 156.728 322.914 133.106 330.58C104.229 339.94 92.6784 343.559 91.9859 343.385C91.574 343.307 91.3713 342.8 91.3957 341.993C91.4379 341.319 91.6381 333.264 91.8768 324.178C92.5066 301.214 94.5788 229.399 95.1225 213.359C95.3422 206.105 95.655 196.251 95.8073 191.458C95.976 186.128 96.2769 182.43 96.6435 181.845C97.0798 181.117 100.196 179.758 109.909 176.076C116.908 173.431 135.909 166.215 152.108 160.047C168.313 153.923 184.262 147.879 187.526 146.633C190.791 145.387 193.642 144.376 193.867 144.39C194.092 144.404 194.443 146.007 194.661 147.939Z" fill="#F1F1F1"/>
<path d="M437.675 245.229C442.216 250.098 443.027 251.148 442.444 251.45C442.03 251.685 439.517 252.561 436.83 253.461C434.142 254.361 409.208 262.873 381.423 272.397C320.014 293.441 311.4 296.349 310.976 296.184C310.309 295.873 301.075 285.665 301.264 285.416C301.378 285.267 306.14 283.55 311.847 281.571C317.555 279.593 327.391 276.162 333.688 273.925C344.715 270.065 426.83 240.903 428.566 240.222C429.03 240.025 430.069 239.795 430.808 239.65C432.16 239.422 432.514 239.731 437.675 245.229Z" fill="#F1F1F1"/>
<path d="M423.778 78.0906L429.26 84.304L435.448 130.559C441.21 173.349 447.578 225.199 448.696 238.694L449.205 244.423L443.951 238.892C441.09 235.891 438.479 233.079 438.157 232.677C437.872 232.225 437.638 230.829 437.594 229.185C437.519 224.691 431.364 173.749 424.521 121.026C420.986 93.9896 418.16 71.8513 418.203 71.8454C418.247 71.8394 420.765 74.6196 423.778 78.0906Z" fill="#F1F1F1"/>
<path d="M443.647 100.28C445.712 102.675 447.736 105.433 448.13 106.361C449.759 110.154 468.666 258.996 468.05 263.004C467.906 263.916 467.403 263.494 463.457 259.391C457.792 253.47 457.631 253.269 458.036 251.653C458.86 248.196 453.454 201.791 445.069 140.001C441.432 113.201 439.182 95.3109 439.431 95.5001C439.686 95.7331 441.577 97.8401 443.647 100.28Z" fill="#F1F1F1"/>
<path d="M455.102 263.557C458.434 267.074 459.834 268.847 459.513 269.113C459.231 269.33 456.718 270.206 453.931 271.03L448.783 272.532L444.132 271.78C437.334 270.651 434.229 270.448 428.021 270.711C421.276 270.958 414.852 272.588 408.613 275.575C402.204 278.63 395.242 284.837 392.33 290.004L391.153 292.171L384.03 294.565C380.146 295.85 371.194 298.893 364.158 301.275C338.235 310.056 327.68 313.451 327.081 313.309C326.344 313.141 317.963 304.289 317.868 303.588C317.838 303.369 319.612 302.638 321.786 301.897C326.042 300.528 337.254 296.696 382.827 281.12L384.748 280.464C437.298 262.495 448.424 258.711 449.338 258.542C449.995 258.453 451.56 259.801 455.102 263.557Z" fill="#F1F1F1"/>
<path d="M385.847 304.665C385.428 305.524 383.941 309.026 382.53 312.429L379.98 318.617L363.073 324.167C353.77 327.258 345.295 329.88 344.244 330.023L342.367 330.322L338.125 325.68C335.812 323.095 333.996 320.889 334.104 320.696C334.375 320.391 383.966 303.627 385.531 303.325L386.576 303.139L385.847 304.665Z" fill="#F1F1F1"/>
<path d="M249.793 358.004C254.032 362.29 254.893 363.377 254.304 363.635C252.837 364.325 203.546 380.023 172.992 389.521C157.415 394.356 147.977 397.108 147.253 397.028C145.979 396.844 136.429 387.927 136.933 387.368C137.084 387.169 143.443 385.058 151.097 382.636C169.155 377.019 204.497 365.667 226.108 358.632C235.499 355.529 243.491 352.972 243.879 352.875C244.311 352.772 246.635 354.776 249.793 358.004Z" fill="#F1F1F1"/>
<path d="M232.465 339.751C235.469 342.822 237.87 345.395 237.794 345.495C237.485 345.849 163.061 369.908 139.354 377.273C127.967 380.781 129.515 381.016 123.114 374.928C120.141 372.076 117.807 369.672 117.883 369.573C117.953 369.429 123.979 367.497 131.207 365.222C152.291 358.57 217.338 337.389 223.805 335.084C224.738 334.735 225.853 334.405 226.285 334.302C226.805 334.187 228.879 336.001 232.465 339.751Z" fill="#F1F1F1"/>
<path d="M209.829 315.574C210.163 316.064 212.675 318.8 215.38 321.644C220.108 326.577 220.275 326.822 219.309 327.266C218.764 327.518 214.585 328.932 210.019 330.444C205.452 331.956 198.618 334.177 194.865 335.444C151.19 349.8 111.132 362.55 110.215 362.363C109.292 362.131 97.8163 351.513 98.1251 351.159C98.2764 350.96 103.695 349.155 110.153 347.119C126.025 342.155 196.191 319.254 205.601 315.97C207.262 315.388 208.709 314.879 208.878 314.811C209.053 314.788 209.457 315.134 209.829 315.574Z" fill="#F1F1F1"/>
<path d="M356.792 105.689C360.627 119.485 373.159 127.372 389.223 126.129L393.857 125.768L397.008 149.646C398.704 162.795 400.151 174.773 400.222 176.28L400.365 178.981L397.373 180.591C381.602 188.931 370.429 206.502 369.239 224.681C369.104 226.974 368.808 229.065 368.619 229.314C368.013 230.11 293.063 256.203 292.647 255.768C292.492 255.611 292.098 252.052 291.753 247.862L291.075 240.239L294.871 236.334C311.316 219.162 318.979 199.391 316.422 180.874C314.655 168.18 309.251 158.924 299.501 151.818C296.529 149.635 290.438 146.492 286.94 145.361C284.888 144.703 284.684 144.508 284.493 143.107C284.193 140.561 283.6 130.607 283.795 130.402C283.871 130.303 292.995 126.879 304.079 122.788C325.271 114.962 348.482 106.237 352.418 104.677C356.141 103.191 356.097 103.197 356.792 105.689Z" fill="#F1F1F1"/>
<path d="M195.83 164.772C195.794 165.491 196.009 168.717 196.274 171.981L196.813 177.929L192.841 182.839C182.918 195.156 177.382 208.261 176.298 221.966C175.881 227.106 177.373 238.098 179 242.203C183.004 252.318 190.093 260.187 199.323 264.776C200.899 265.544 202.224 266.434 202.265 266.741C202.444 268.055 203.329 284.435 203.253 284.535C203.14 284.684 189.119 289.486 169.448 296.035C161.943 298.57 152.383 301.74 148.248 303.149C144.114 304.557 140.618 305.745 140.53 305.757C140.443 305.769 139.992 304.091 139.537 302.057C138.454 297.03 137.643 295 134.997 290.944C130.712 284.345 123.527 280.37 114.981 279.835C112.82 279.682 110.997 279.394 110.879 279.187C110.689 278.767 111.939 231.458 112.204 228.479C112.326 227.08 112.565 226.869 115.293 225.607C123.207 221.812 130.888 214.66 135.795 206.457C139.507 200.289 141.49 193.866 142.529 184.761C142.709 183.131 142.93 182.789 144.126 182.403C144.847 182.127 156.489 177.871 169.905 172.884C183.327 167.941 194.675 163.814 195.107 163.711C195.758 163.578 195.919 163.779 195.83 164.772Z" fill="#F1F1F1"/>
<path d="M434.91 279.409C460.306 280.869 485.339 298.388 495.015 321.38C497.209 326.702 498.632 335.874 498.016 340.863C496.976 349.3 492.068 357.503 485.438 361.881C480.157 365.363 475.526 367.061 468.645 367.951C459.23 369.228 452.167 368.448 441.929 364.976C419.071 357.241 400.283 337.759 396.162 317.581C393.244 303.304 399.336 290.035 411.649 283.815C418.072 280.535 426.551 278.938 434.91 279.409Z" fill="#F1F1F1"/>
<path d="M422.143 291.531C416.469 294.085 412.776 297.44 410.512 302.118C407.957 307.281 407.528 313.316 409.183 319.602C414.993 341.38 442.054 359.382 464.475 356.339C467.978 355.864 468.229 355.741 469.295 354.392C470.727 352.458 470.509 350.526 468.625 349.131C467.382 348.185 466.926 348.113 462.862 348.397C445.422 349.694 426.39 338.273 418.867 321.945C416.724 317.33 416.019 311.807 417.112 308.358C418.237 304.816 419.424 303.049 422.188 301.069C427.835 297.002 436.928 296.304 446.42 299.208C450.517 300.48 451.98 300.415 453.39 298.975C454.68 297.64 454.817 296.016 453.729 294.246C453.02 292.96 452.297 292.568 449.036 291.538C442.145 289.396 437.804 288.96 430.818 289.73C425.851 290.27 424.161 290.633 422.143 291.531Z" fill="#353535"/>
<path d="M17.4985 181.7C16.9248 182.402 16.562 183.344 16.6274 183.825C16.7878 185.008 22.1525 190.033 26.4815 193.013C32.788 197.42 41.555 201.225 48.8624 202.82C53.4993 203.796 60.4273 204.238 65.3297 203.885C69.5255 203.583 69.6509 203.522 70.635 202.229C71.3541 201.284 71.4958 200.685 71.2196 199.964C70.4126 198.29 69.5709 198.003 65.5762 198.143C54.2988 198.514 44.651 196.434 35.4787 191.614C31.6367 189.593 25.1513 184.854 22.1657 181.914C20.3656 180.152 18.7037 180.065 17.4985 181.7Z" fill="#353535"/>
<path d="M40.5436 215.414C39.5596 216.707 39.8173 218.277 41.198 219.249C42.8273 220.411 49.7006 222.421 53.8341 222.975C55.8323 223.239 59.0565 223.337 61.0449 223.201C64.4466 222.962 64.6596 222.889 65.2295 221.83C66.6743 219.003 64.9574 217.853 58.5289 217.477C53.9433 217.207 48.9005 216.197 44.9227 214.819C42.5846 214.022 41.4898 214.17 40.5436 215.414Z" fill="#353535"/>
<path d="M495.536 244.156C493.967 245.083 493.834 245.413 487.433 263.318C484.692 271.049 484.665 272.167 487.166 273.835C488.193 274.498 488.786 274.596 489.982 274.211C490.796 273.966 491.788 273.386 492.122 272.894C492.722 272.055 500.938 250.113 501.34 248.141C501.707 246.574 500.297 244.402 498.588 243.965C496.829 243.49 496.697 243.508 495.536 244.156Z" fill="#353535"/>
<path d="M512.216 269.405C509.371 271.441 505.633 274.134 503.937 275.435C502.196 276.741 500.651 277.843 500.432 277.872C500.213 277.902 499.584 278.523 499.01 279.225C497.124 281.755 498.65 285.116 501.866 285.482C503.134 285.622 503.831 285.171 515.836 276.362C522.571 271.434 523.371 270.433 522.376 268.026C521.835 266.673 519.838 265.427 518.48 265.612C517.911 265.689 515.111 267.407 512.216 269.405Z" fill="#353535"/>
<path d="M357.302 372.447C355.972 374.143 356.366 376.721 358.095 377.958C359.326 378.817 359.551 378.831 366.383 377.904L373.389 376.953L374.274 375.584C375.487 373.68 375.15 371.853 373.354 370.447L371.911 369.349L365.036 370.282C358.38 371.185 358.211 371.253 357.302 372.447Z" fill="#353535"/>
</svg>
