<svg width="23" height="26" viewBox="0 0 23 26" fill="none" xmlns="http://www.w3.org/2000/svg">
<path d="M21.9289 14.0242L17.7958 16.3634L14.0888 12.6795L17.8253 8.9662L21.9289 11.2885C22.171 11.4254 22.3725 11.6242 22.5127 11.8646C22.6529 12.1049 22.7268 12.3781 22.7268 12.6563C22.7268 12.9346 22.6529 13.2078 22.5127 13.4481C22.3725 13.6884 22.171 13.8872 21.9289 14.0242ZM0.118118 0.974239C0.0402201 1.16435 0.00010031 1.36782 0 1.57327V23.7384C0 23.9672 0.0474582 24.1802 0.130774 24.3711L11.8951 12.6785L0.118118 0.974239ZM12.9919 11.5891L16.4279 8.17418L2.34654 0.205416C2.04461 0.0322805 1.69319 -0.0342137 1.34887 0.0166379L12.9919 11.5891ZM12.9919 13.769L1.39105 25.2992C1.70533 25.3372 2.03648 25.2823 2.34654 25.1062L16.3984 17.1543L12.9919 13.769Z" fill="white"/>
</svg>
