<svg width="440" height="440" viewBox="0 0 440 440" fill="none" xmlns="http://www.w3.org/2000/svg">
<path d="M192.768 39.4387C192.172 39.7194 191.365 40.351 190.944 40.8773C190.172 41.8247 190.172 42.0703 190.172 53.7545V65.6843L191.365 66.8773C192.417 67.93 192.768 68.0703 194.347 68.0703C196.628 68.0703 198.172 66.8422 198.558 64.7019C198.698 63.93 198.803 58.5615 198.733 52.7721C198.663 41.0177 198.593 40.5615 196.347 39.5089C194.909 38.8422 194.207 38.8072 192.768 39.4387Z" fill="#3A3A3A"/>
<path d="M111.509 70.4918C110.457 71.4391 110.352 71.6848 110.352 73.5795V75.6848L116.352 81.9655C119.65 85.4041 122.948 88.9128 123.685 89.7549C125.299 91.5795 126.562 92.2812 128.246 92.2812C130.036 92.2812 131.369 91.4742 132.106 89.9655C132.878 88.3163 132.597 86.562 131.334 85.0532C129.159 82.4918 117.369 70.3163 116.702 69.9304C116.281 69.6848 115.229 69.5093 114.316 69.4742C112.948 69.4742 112.422 69.6497 111.509 70.4918Z" fill="#3A3A3A"/>
<path d="M282.143 70.5641C281.406 70.7044 280.388 71.4062 279.476 72.3536C274.809 77.1957 266.353 86.2834 265.862 87.0202C265.546 87.4764 265.266 88.529 265.266 89.336C265.266 93.0553 269.932 94.8097 272.774 92.1781C273.231 91.7571 276.669 88.143 280.459 84.1781C286.038 78.2834 287.371 76.7044 287.546 75.6518C288.213 72.2834 285.617 69.8272 282.143 70.5641Z" fill="#3A3A3A"/>
<path d="M192.107 81.4725C191.721 81.683 190.213 82.8409 188.774 84.0339C172.283 97.6479 154.107 104.701 133.686 105.472C127.476 105.718 126.072 105.964 124.599 107.227C122.493 108.981 122.353 110.104 122.564 121.157C123.16 150.701 130.178 177.122 143.265 199.122C155.335 219.437 173.441 234.174 190.283 237.367C193.792 238.034 195.686 238.034 199.265 237.367C210.002 235.332 222.072 228.209 231.792 218.209C254.388 194.911 267.721 156.139 266.95 115.929C266.844 109.613 266.844 109.578 265.862 108.315C264.178 106.104 263.371 105.894 256.318 105.578C246.704 105.192 237.651 103.508 229.09 100.49C220.809 97.6128 210.739 91.9286 203.055 85.7882C197.476 81.3321 197.02 81.0514 194.774 81.0514C193.686 81.0514 192.493 81.2619 192.107 81.4725ZM197.932 93.3672C205.195 99.1216 215.23 104.981 223.476 108.244C229.967 110.771 238.809 112.946 246.037 113.788L249.546 114.209L249.511 119.823C249.335 138.104 244.809 159.086 237.546 175.437C228.634 195.508 216.985 211.086 200.528 225.051C195.371 229.402 195.651 229.297 192.178 228.595C177.827 225.683 162.213 212.771 151.3 194.771C141.371 178.42 134.879 158.104 132.458 135.964C132.142 133.262 131.827 127.402 131.686 122.911L131.476 114.806L133.721 114.595C134.949 114.49 137.3 114.315 138.949 114.209C148.879 113.508 161.23 110.49 170.283 106.455C177.02 103.472 185.616 98.1742 191.757 93.1918C193.3 91.9637 194.634 90.9111 194.704 90.9111C194.774 90.876 196.213 91.9988 197.932 93.3672Z" fill="#3A3A3A"/>
<path d="M197.932 93.3672C205.195 99.1216 215.23 104.981 223.476 108.244C229.967 110.771 238.809 112.946 246.037 113.788L249.546 114.209L249.511 119.823C249.335 138.104 244.809 159.086 237.546 175.437C228.634 195.508 216.985 211.086 200.528 225.051C195.371 229.402 195.651 229.297 192.178 228.595C177.827 225.683 162.213 212.771 151.3 194.771C141.371 178.42 134.879 158.104 132.458 135.964C132.142 133.262 131.827 127.402 131.686 122.911L131.476 114.806L133.721 114.595C134.949 114.49 137.3 114.315 138.949 114.209C148.879 113.508 161.23 110.49 170.283 106.455C177.02 103.472 185.616 98.1742 191.757 93.1918C193.3 91.9637 194.634 90.9111 194.704 90.9111C194.774 90.876 196.213 91.9988 197.932 93.3672Z" fill="#F2F8FF"/>
<path d="M217.368 127.857C215.825 128.558 215.123 129.471 211.86 135.085C207.825 141.962 194.105 165.997 190.667 172.172C189.158 174.944 187.825 177.19 187.719 177.19C187.614 177.155 186.982 176.348 186.281 175.33C185.614 174.313 181.86 168.979 177.93 163.435C172.491 155.716 170.561 153.26 169.649 152.839C168.175 152.137 165.544 152.102 164.21 152.804C162.07 153.927 160.737 156.839 161.368 159.12C161.544 159.751 164.421 164.137 167.789 168.839C171.158 173.541 176.14 180.558 178.912 184.488C184.667 192.628 185.263 193.155 188.807 192.909C192.175 192.664 192.421 192.348 200 178.874C207.193 166.137 213.684 154.664 216.982 149.05C218.07 147.155 219.789 144.137 220.842 142.383C221.86 140.593 223.298 138.172 224 137.014C225.053 135.26 225.263 134.593 225.263 132.979C225.263 130.699 224.526 129.365 222.561 128.172C221.053 127.26 218.982 127.12 217.368 127.857Z" fill="#6DAFFA"/>
<path d="M68.4551 132.105C67.227 133.158 66.5253 135.018 66.8411 136.456C67.0867 137.614 68.5253 139.088 69.9288 139.614C70.5604 139.86 75.2621 140 82.8411 140C95.4727 140 96.2446 139.895 97.6832 138.316C98.5955 137.263 98.806 134.772 98.1042 133.404C96.9814 131.263 96.806 131.228 82.4902 131.228H69.5428L68.4551 132.105Z" fill="#3A3A3A"/>
<path d="M289.964 133.33C288.525 133.892 287.367 135.716 287.367 137.401C287.367 138.664 287.578 139.19 288.56 140.278L289.753 141.576L302.876 141.681C315.508 141.751 315.999 141.751 317.122 141.05C318.279 140.313 319.297 138.558 319.297 137.19C319.297 135.997 318.279 134.418 317.086 133.681C316.034 133.015 315.262 132.98 303.332 133.015C296.385 133.015 290.385 133.155 289.964 133.33Z" fill="#3A3A3A"/>
<path d="M93.1557 174.349C91.9627 174.84 91.3311 175.858 90.3487 178.77C89.8575 180.314 88.6996 182.911 87.8575 184.56C86.489 187.191 86.0329 187.718 84.2083 188.876C82.2434 190.174 76.5241 192.63 75.5417 192.63C75.2961 192.63 74.5943 193.086 73.9978 193.612C73.0855 194.419 72.875 194.876 72.875 196.104C72.875 198.139 73.8575 199.086 76.9452 199.998C79.682 200.84 82.1031 201.963 84.6294 203.612C86.875 205.086 89.6118 210.033 90.8399 214.946C91.6469 218.104 94.875 219.156 96.875 216.911C97.4364 216.279 97.8925 215.507 97.8925 215.156C97.8925 213.156 101.717 205.647 103.436 204.209C105.086 202.84 108.805 200.946 111.226 200.174C114.559 199.156 115.121 198.876 115.612 197.858C116.91 195.402 115.647 193.507 112.033 192.314C108.98 191.297 105.822 189.788 103.963 188.455C102.243 187.226 100.138 183.647 98.7346 179.647C98.2434 178.209 97.6469 176.56 97.4715 176.033C96.875 174.454 94.8399 173.683 93.1557 174.349Z" fill="#3A3A3A"/>
<path d="M58.0692 217.332C49.2973 219.051 42.6657 224.876 39.8587 233.367C37.4376 240.595 37.8938 247.367 41.192 254.209C44.2095 260.42 45.3674 261.578 69.2973 282.49C88.9464 299.683 105.508 313.823 108.245 315.718C109.613 316.665 115.087 319.999 120.455 323.122C125.824 326.244 137.157 332.911 145.648 337.929C162.771 348.034 165.227 349.332 169.297 350.63C173.718 351.999 176.841 352.385 183.017 352.209C192.28 351.964 194.315 351.367 225.613 339.999C248.841 331.578 256.35 329.122 263.192 327.718C276.315 325.016 284.876 325.858 297.367 331.051C303.508 333.578 315.473 339.718 315.297 340.244C312.736 346.841 313.262 351.508 316.982 355.367C317.753 356.209 319.122 357.262 319.999 357.718C322.736 359.087 343.789 367.858 358.104 373.578C363.753 375.823 364.174 375.929 367.017 375.929C370.701 375.964 372.841 375.122 375.192 372.701C377.859 369.964 379.999 365.332 391.052 338.42C393.438 332.63 398.315 320.701 401.929 311.929C410.35 291.402 414.876 279.999 415.613 277.402C416.49 274.385 416.21 270.63 414.911 267.964C412.876 263.858 410.911 262.701 390.911 253.858C375.578 247.122 366.701 243.402 364.069 242.63C359.683 241.367 354.42 242.841 351.859 246.034C351.157 246.946 350.666 247.297 350.385 247.087C350.174 246.911 347.227 245.297 343.859 243.508C340.49 241.718 335.438 239.016 332.631 237.543C312.806 226.981 307.473 224.49 300.701 222.665C293.789 220.841 286.56 220.174 278.911 220.736C265.718 221.648 255.613 225.297 237.964 235.367C229.683 240.104 226.069 241.929 220.876 243.858C211.227 247.508 195.613 250.104 159.052 254.209L148.069 255.437L129.403 245.929C84.4201 223.016 76.2797 219.122 70.4552 217.718C67.2973 216.946 61.0517 216.736 58.0692 217.332ZM71.2271 227.227C72.8762 227.753 82.7359 232.49 93.1569 237.718C111.859 247.122 135.824 259.297 136.104 259.543C136.21 259.613 135.894 259.929 135.403 260.244C132.35 262.315 128.666 267.929 127.648 272.104C127.403 273.051 127.192 273.894 127.157 273.964C127.157 273.999 124.525 272.595 121.367 270.841C121.365 270.84 121.363 270.838 121.361 270.837C118.194 269.078 107.149 262.942 96.8411 257.192C86.5253 251.437 74.771 244.876 70.7008 242.63C66.6657 240.35 60.5604 236.981 57.192 235.157C53.8236 233.332 50.9815 231.788 50.9113 231.718C50.5604 231.402 52.1394 229.683 53.8587 228.525C56.8762 226.56 59.4376 225.929 64.2095 226.104C67.4727 226.209 68.8411 226.42 71.2271 227.227ZM291.227 229.964C299.367 231.051 304.315 232.876 316.139 239.051C330.49 246.56 347.017 255.508 347.017 255.753C347.017 255.894 344.245 263.332 340.841 272.28C337.473 281.262 331.227 297.823 326.981 309.122C322.736 320.42 319.122 329.999 318.946 330.455C318.602 331.213 318.562 331.193 313.349 328.603C313.252 328.554 313.153 328.505 313.052 328.455C301.508 322.665 293.929 319.718 286.841 318.244C275.508 315.894 262.42 317.578 244.596 323.683C242.174 324.525 238.911 325.472 237.367 325.753C235.824 326.069 230.315 327.087 225.087 328.069C215.824 329.823 211.403 330.701 196.139 333.929C183.403 336.595 176.596 336.42 169.718 333.227C168.315 332.56 163.578 329.929 159.122 327.367C154.701 324.806 149.087 321.613 146.666 320.244C144.245 318.911 139.438 316.174 135.964 314.209C124.034 307.437 112.28 301.087 100.525 295.087C92.0692 290.771 93.0517 291.472 79.999 279.999C65.2622 267.051 55.7534 258.49 53.5078 256.104C49.4727 251.858 47.2271 246.736 47.4376 242.28L47.5429 239.964L62.2797 248.174C96.1394 267.016 108.174 273.718 113.332 276.56C116.315 278.209 120.666 280.595 122.981 281.894C125.297 283.157 127.297 284.209 127.403 284.209C127.543 284.209 128.315 285.578 129.122 287.227C131.753 292.63 136.841 296.841 142.806 298.455C145.894 299.297 150.174 299.227 164.034 298.104C195.613 295.543 215.543 293.964 227.894 292.981C236.876 292.28 241.964 291.718 242.736 291.402C245.052 290.35 245.929 287.262 244.56 284.981C243.122 282.63 243.367 282.63 224.49 284.209C215.157 284.981 196.736 286.455 183.508 287.543C170.28 288.595 157.332 289.648 154.736 289.858C148.631 290.385 145.227 290.174 143.087 289.157C140.49 287.929 138.385 285.858 137.157 283.297C133.613 276.104 137.332 267.508 144.911 265.262C146.174 264.911 149.473 264.35 152.28 264.034C165.613 262.56 184.841 260.174 192.455 259.087C217.578 255.508 225.367 253.016 242.455 243.192C257.192 234.701 265.473 231.437 275.999 230.034C280.596 229.402 286.701 229.367 291.227 229.964ZM364.49 252.244C368.841 253.999 390.876 263.578 399.227 267.367C408.104 271.367 408.315 271.718 406.174 277.613C403.438 285.227 377.543 348.385 372.736 359.192L371.157 362.771L368.455 361.753C366.981 361.227 362.069 359.227 357.543 357.367C353.017 355.508 346.771 352.946 343.683 351.683C340.596 350.455 336.666 348.806 334.911 348.104C333.192 347.367 330.034 346.069 327.929 345.227C325.824 344.385 324.034 343.472 323.964 343.262C323.859 343.016 325.999 336.946 328.701 329.753C359.227 248.736 357.718 252.63 358.806 251.648C359.999 250.595 360.56 250.665 364.49 252.244Z" fill="#3A3A3A"/>
<path d="M291.227 229.964C299.367 231.051 304.315 232.876 316.139 239.051C330.49 246.56 347.017 255.508 347.017 255.753C347.017 255.894 344.245 263.332 340.841 272.28C337.473 281.262 331.227 297.823 326.981 309.122C322.736 320.42 319.122 329.999 318.946 330.455C318.602 331.213 318.562 331.193 313.349 328.603L313.052 328.455C301.508 322.665 293.929 319.718 286.841 318.244C275.508 315.894 262.42 317.578 244.596 323.683C242.174 324.525 238.911 325.472 237.367 325.753C235.824 326.069 230.315 327.087 225.087 328.069C215.824 329.823 211.403 330.701 196.139 333.929C183.403 336.595 176.596 336.42 169.718 333.227C168.315 332.56 163.578 329.929 159.122 327.367C154.701 324.806 149.087 321.613 146.666 320.244C144.245 318.911 139.438 316.174 135.964 314.209C124.034 307.437 112.28 301.087 100.525 295.087C92.0692 290.771 93.0517 291.472 79.999 279.999C65.2622 267.051 55.7534 258.49 53.5078 256.104C49.4727 251.858 47.2271 246.736 47.4376 242.28L47.5429 239.964L62.2797 248.174C96.1394 267.016 108.174 273.718 113.332 276.56C116.315 278.209 120.666 280.595 122.981 281.894C125.297 283.157 127.297 284.209 127.403 284.209C127.543 284.209 128.315 285.578 129.122 287.227C131.753 292.63 136.841 296.841 142.806 298.455C145.894 299.297 150.174 299.227 164.034 298.104C195.613 295.543 215.543 293.964 227.894 292.981C236.876 292.28 241.964 291.718 242.736 291.402C245.052 290.35 245.929 287.262 244.56 284.981C243.122 282.63 243.367 282.63 224.49 284.209C215.157 284.981 196.736 286.455 183.508 287.543C170.28 288.595 157.332 289.648 154.736 289.858C148.631 290.385 145.227 290.174 143.087 289.157C140.49 287.929 138.385 285.858 137.157 283.297C133.613 276.104 137.332 267.508 144.911 265.262C146.174 264.911 149.473 264.35 152.28 264.034C165.613 262.56 184.841 260.174 192.455 259.087C217.578 255.508 225.367 253.016 242.455 243.192C257.192 234.701 265.473 231.437 275.999 230.034C280.596 229.402 286.701 229.367 291.227 229.964Z" fill="#F1F1F1"/>
<path d="M71.2271 227.227C72.8762 227.753 82.7359 232.49 93.1569 237.718C111.859 247.122 135.824 259.297 136.104 259.543C136.21 259.613 135.894 259.929 135.403 260.244C132.35 262.315 128.666 267.929 127.648 272.104C127.403 273.051 127.192 273.894 127.157 273.964C127.157 273.999 124.525 272.595 121.367 270.841L121.361 270.837C118.194 269.078 107.149 262.942 96.8411 257.192C86.5253 251.437 74.771 244.876 70.7008 242.63C66.6657 240.35 60.5604 236.981 57.192 235.157C53.8236 233.332 50.9815 231.788 50.9113 231.718C50.5604 231.402 52.1394 229.683 53.8587 228.525C56.8762 226.56 59.4376 225.929 64.2095 226.104C67.4727 226.209 68.8411 226.42 71.2271 227.227Z" fill="#F1F1F1"/>
<path d="M364.49 252.244C368.841 253.999 390.876 263.578 399.227 267.367C408.104 271.367 408.315 271.718 406.174 277.613C403.438 285.227 377.543 348.385 372.736 359.192L371.157 362.771L368.455 361.753C366.981 361.227 362.069 359.227 357.543 357.367C353.017 355.508 346.771 352.946 343.683 351.683C340.596 350.455 336.666 348.806 334.911 348.104C333.192 347.367 330.034 346.069 327.929 345.227C325.824 344.385 324.034 343.472 323.964 343.262C323.859 343.016 325.999 336.946 328.701 329.753C359.227 248.736 357.718 252.63 358.806 251.648C359.999 250.595 360.56 250.665 364.49 252.244Z" fill="#3A3A3A"/>
<path d="M388.281 273.856C384.492 275.189 382.773 279.61 384.562 283.364C386.141 286.557 390.211 287.891 393.509 286.312C397.72 284.277 398.597 278.593 395.158 275.4C393.088 273.435 390.808 272.943 388.281 273.856Z" fill="#F1F1F1"/>
<path d="M43.0528 283.51C41.8598 284.457 41.5089 286.247 42.2107 287.615C44.1405 291.334 53.2282 301.334 59.4738 306.562C65.3335 311.51 73.0528 316.492 74.8422 316.492C75.3335 316.492 76.2107 316.071 76.8071 315.58C77.7194 314.843 77.8949 314.422 77.8949 313.194C77.8949 312.387 77.6843 311.475 77.4738 311.159C77.2282 310.843 75.5089 309.685 73.6843 308.562C71.8598 307.44 68.8071 305.334 66.8422 303.896C62.0703 300.282 53.6843 291.896 50.351 287.369C48.8773 285.334 47.4036 283.475 47.0878 283.229C46.2107 282.562 44.0703 282.703 43.0528 283.51Z" fill="#3A3A3A"/>
<path d="M51.3362 320.172C49.9678 320.769 49.4766 321.646 49.4766 323.471C49.4766 324.769 49.652 325.014 51.6169 326.664C55.7222 330.067 62.7748 334.383 64.2836 334.383C65.266 334.383 66.9502 333.435 67.3713 332.664C67.8274 331.786 67.8274 329.962 67.3713 329.085C67.1608 328.734 66.2134 327.997 65.2309 327.506C62.7046 326.242 59.0555 323.856 56.7397 321.962C54.9502 320.488 53.4064 319.611 52.7046 319.646C52.5643 319.681 51.9678 319.892 51.3362 320.172Z" fill="#3A3A3A"/>
<path d="M81.4021 331.968C80.0337 332.529 79.2969 333.687 79.2969 335.371C79.2969 337.757 81.4021 339.371 83.7179 338.81C86.3144 338.143 87.2618 334.74 85.332 332.88C84.2092 331.792 82.6653 331.442 81.4021 331.968Z" fill="#3A3A3A"/>
</svg>
