<svg width="26" height="26" viewBox="0 0 26 26" fill="none" xmlns="http://www.w3.org/2000/svg">
<g clip-path="url(#clip0_3399_4680)">
<path d="M23.2179 14.0242L19.0848 16.3634L15.3778 12.6795L19.1144 8.9662L23.2179 11.2885C23.4601 11.4254 23.6616 11.6242 23.8018 11.8646C23.942 12.1049 24.0158 12.3781 24.0158 12.6563C24.0158 12.9346 23.942 13.2078 23.8018 13.4481C23.6616 13.6884 23.4601 13.8872 23.2179 14.0242ZM1.40718 0.974239C1.32928 1.16435 1.28916 1.36782 1.28906 1.57327V23.7384C1.28906 23.9672 1.33652 24.1802 1.41984 24.3711L13.1842 12.6785L1.40718 0.974239ZM14.281 11.5891L17.717 8.17418L3.63561 0.205416C3.33367 0.0322805 2.98225 -0.0342137 2.63793 0.0166379L14.281 11.5891ZM14.281 13.769L2.68012 25.2992C2.99439 25.3372 3.32555 25.2823 3.63561 25.1062L17.6875 17.1543L14.281 13.769Z" fill="white"/>
</g>
<defs>
<clipPath id="clip0_3399_4680">
<rect width="25.311" height="25.311" fill="white"/>
</clipPath>
</defs>
</svg>
