<svg width="71" height="71" viewBox="0 0 71 71" fill="none" xmlns="http://www.w3.org/2000/svg">
<path d="M61.1332 35.4904C61.1332 49.6508 49.6547 61.1293 35.4944 61.1293C21.334 61.1293 9.85547 49.6508 9.85547 35.4904C9.85547 21.3301 21.334 9.85156 35.4944 9.85156C49.6547 9.85156 61.1332 21.3301 61.1332 35.4904ZM36.4122 28.7782C33.9201 29.8157 28.9368 31.9634 21.4622 35.2212C20.2469 35.7033 19.6111 36.175 19.5547 36.6365C19.4572 37.4159 20.4341 37.7236 21.7647 38.1415L22.3237 38.321C23.6312 38.7466 25.3952 39.244 26.3105 39.2645C27.1412 39.2816 28.0676 38.9397 29.0898 38.2389C36.0738 33.5214 39.6786 31.1378 39.9042 31.0883C40.0658 31.0524 40.2863 31.0062 40.435 31.1395C40.5862 31.2729 40.5709 31.5241 40.5555 31.5933C40.458 32.0061 36.6225 35.5725 34.638 37.4159C34.05 37.9697 33.4663 38.5278 32.8869 39.0902C31.6716 40.2618 30.7589 41.1413 32.9382 42.577C35.1457 44.0333 37.3737 45.4845 39.5274 47.0203C40.5888 47.7792 41.5426 48.456 42.722 48.3509C43.4065 48.2868 44.1142 47.6433 44.4731 45.7204C45.3243 41.1823 46.9934 31.3421 47.378 27.286C47.4003 26.9496 47.3857 26.6117 47.3344 26.2784C47.3041 26.0102 47.1742 25.7631 46.9703 25.5861C46.6627 25.3349 46.1883 25.2836 45.9781 25.2862C45.0141 25.3041 43.5347 25.8169 36.4148 28.7782" fill="#047BFE"/>
</svg>
