<svg width="72" height="72" viewBox="0 0 72 72" fill="none" xmlns="http://www.w3.org/2000/svg">
<path d="M49.7953 17.46C47.7451 15.1186 46.615 12.1122 46.6153 9H37.3453V46.2C37.2753 48.2136 36.4259 50.1212 34.9763 51.5205C33.5266 52.9198 31.5901 53.7012 29.5753 53.7C25.3153 53.7 21.7753 50.22 21.7753 45.9C21.7753 40.74 26.7553 36.87 31.8853 38.46V28.98C21.5353 27.6 12.4753 35.64 12.4753 45.9C12.4753 55.89 20.7553 63 29.5453 63C38.9653 63 46.6153 55.35 46.6153 45.9V27.03C50.3743 29.7296 54.8874 31.1779 59.5153 31.17V21.9C59.5153 21.9 53.8753 22.17 49.7953 17.46Z" fill="#047BFE"/>
</svg>
