<svg width="72" height="72" viewBox="0 0 72 72" fill="none" xmlns="http://www.w3.org/2000/svg">
<path d="M61.9946 35.9922C61.9946 50.352 50.3544 61.9922 35.9946 61.9922C21.6348 61.9922 9.99463 50.352 9.99463 35.9922C9.99463 21.6324 21.6348 9.99219 35.9946 9.99219C50.3544 9.99219 61.9946 21.6324 61.9946 35.9922ZM36.9254 29.1854C34.3982 30.2375 29.3447 32.4155 21.7648 35.7192C20.5324 36.208 19.8876 36.6864 19.8304 37.1544C19.7316 37.9448 20.7222 38.2568 22.0716 38.6806L22.6384 38.8626C23.9644 39.2942 25.7532 39.7986 26.6814 39.8194C27.5238 39.8367 28.4633 39.4901 29.4998 38.7794C36.5822 33.9954 40.2378 31.5783 40.4666 31.528C40.6304 31.4916 40.854 31.4448 41.0048 31.58C41.1582 31.7152 41.1426 31.97 41.127 32.0402C41.0282 32.4588 37.1386 36.0754 35.1262 37.9448C34.53 38.5064 33.938 39.0723 33.3504 39.6426C32.118 40.8308 31.1924 41.7226 33.4024 43.1786C35.641 44.6554 37.9004 46.127 40.0844 47.6844C41.1608 48.454 42.128 49.1404 43.324 49.0338C44.0182 48.9688 44.7358 48.3162 45.0998 46.3662C45.963 41.7642 47.6556 31.7854 48.0456 27.6722C48.0683 27.331 48.0534 26.9883 48.0014 26.6504C47.9707 26.3784 47.8389 26.1278 47.6322 25.9484C47.3202 25.6936 46.8392 25.6416 46.626 25.6442C45.6484 25.6624 44.1482 26.1824 36.928 29.1854" fill="#047BFE"/>
</svg>
