<svg width="72" height="72" viewBox="0 0 72 72" fill="none" xmlns="http://www.w3.org/2000/svg">
<path d="M12.78 12.78C9 16.596 9 22.698 9 34.92V37.08C9 49.284 9 55.386 12.78 59.22C16.596 63 22.698 63 34.92 63H37.08C49.284 63 55.386 63 59.22 59.22C63 55.404 63 49.302 63 37.08V34.92C63 22.716 63 16.614 59.22 12.78C55.404 9 49.302 9 37.08 9H34.92C22.716 9 16.614 9 12.78 12.78ZM18.108 25.434H24.3C24.498 35.73 29.034 40.086 32.634 40.986V25.434H38.448V34.308C41.994 33.93 45.738 29.88 46.998 25.416H52.794C52.3211 27.7267 51.3769 29.915 50.0204 31.8444C48.6639 33.7739 46.9242 35.403 44.91 36.63C47.1583 37.7486 49.1438 39.3313 50.7355 41.2736C52.3272 43.2159 53.489 45.4737 54.144 47.898H47.754C46.386 43.632 42.966 40.32 38.448 39.87V47.898H37.728C25.416 47.898 18.396 39.474 18.108 25.434Z" fill="#047BFE"/>
</svg>
