<svg width="72" height="72" viewBox="0 0 72 72" fill="none" xmlns="http://www.w3.org/2000/svg">
<path d="M36.732 12C38.334 12.009 42.342 12.048 46.602 12.219L48.114 12.285C52.401 12.486 56.685 12.834 58.812 13.425C61.647 14.223 63.873 16.545 64.626 19.491C65.826 24.171 65.976 33.297 65.994 35.508L65.997 35.964V36.486C65.976 38.697 65.826 47.826 64.626 52.503C63.864 55.458 61.635 57.783 58.812 58.569C56.685 59.16 52.401 59.508 48.114 59.709L46.602 59.778C42.342 59.946 38.334 59.988 36.732 59.994L36.027 59.997H35.262C31.872 59.976 17.694 59.823 13.182 58.569C10.35 57.771 8.121 55.449 7.368 52.503C6.168 47.823 6.018 38.697 6 36.486V35.508C6.018 33.297 6.168 24.168 7.368 19.491C8.13 16.536 10.359 14.211 13.185 13.428C17.694 12.171 31.875 12.018 35.265 12H36.732ZM29.997 25.5V46.5L47.997 36L29.997 25.5Z" fill="#047BFE"/>
</svg>
